<?xml version="1.0" encoding="UTF-8" standalone="no"?>
<svg
   xmlns:dc="http://purl.org/dc/elements/1.1/"
   xmlns:cc="http://creativecommons.org/ns#"
   xmlns:rdf="http://www.w3.org/1999/02/22-rdf-syntax-ns#"
   xmlns="http://www.w3.org/2000/svg"
   xmlns:xlink="http://www.w3.org/1999/xlink"
   xmlns:sodipodi="http://sodipodi.sourceforge.net/DTD/sodipodi-0.dtd"
   xmlns:inkscape="http://www.inkscape.org/namespaces/inkscape"
   width="574" height="502" viewBox="74 462 574 502"
   version="1.1"
   inkscape:version="0.47 r22583"
   sodipodi:docname="cd case vector.svg"
   inkscape:export-filename="C:\Users\Kenny\Pictures\cd case vector.png"
   inkscape:export-xdpi="90"
   inkscape:export-ydpi="90"
   style="display:inline">
  <defs>
    <linearGradient
       inkscape:collect="always"
       id="linearGradient3727">
      <stop
         style="stop-color:#ffffff;stop-opacity:1;"
         offset="0"
         id="stop3729" />
      <stop
         style="stop-color:#ffffff;stop-opacity:0;"
         offset="1"
         id="stop3731" />
    </linearGradient>
    <linearGradient
       inkscape:collect="always"
       xlink:href="#linearGradient3727"
       id="linearGradient3733"
       x1="81"
       y1="403.86218"
       x2="274"
       y2="773.86218"
       gradientUnits="userSpaceOnUse"
       gradientTransform="matrix(0.98016935,0,0,0.98007495,5.6062834,16.085121)" />
  </defs>
  <metadata>
    <rdf:RDF>
      <cc:Work rdf:about="">
        <dc:format>image/svg+xml</dc:format>
        <dc:type rdf:resource="http://purl.org/dc/dcmitype/StillImage" />
        <dc:title>CD case vector</dc:title>
      </cc:Work>
    </rdf:RDF>
  </metadata>
  <g
     inkscape:groupmode="layer"
     id="layer2"
     inkscape:label="background"
     style="display:inline">
    <rect
       style="fill:#4e4e4e;fill-opacity:1"
       id="rect3631"
       width="549.97809"
       height="479.94528"
       x="85.003998"
       y="472.3613" />
  </g>
  <g
     inkscape:groupmode="layer"
     id="layer5"
     inkscape:label="grooves"
     style="display:inline">
    <rect
       style="fill:#070707;fill-opacity:1"
       id="rect2976"
       width="44.209934"
       height="468.30829"
       x="90.980469"
       y="478.28015" />
    <rect
       style="fill:#363636;fill-opacity:1;display:inline"
       id="rect2848"
       width="1.988"
       height="470"
       x="92"
       y="477.36218" />
    <rect
       style="fill:#363636;fill-opacity:1;display:inline"
       id="rect2848-4"
       width="1.988"
       height="470"
       x="96"
       y="477.36218" />
    <rect
       style="fill:#363636;fill-opacity:1;display:inline"
       id="rect2848-3"
       width="1.988"
       height="470"
       x="100"
       y="477.36218" />
    <rect
       style="fill:#363636;fill-opacity:1;display:inline"
       id="rect2848-1"
       width="1.988"
       height="470"
       x="104"
       y="477.36218" />
    <rect
       style="fill:#363636;fill-opacity:1;display:inline"
       id="rect2848-8"
       width="1.988"
       height="470"
       x="112"
       y="477.36218" />
    <rect
       style="fill:#363636;fill-opacity:1;display:inline"
       id="rect2848-7"
       width="1.988"
       height="470"
       x="108"
       y="477.36218" />
    <rect
       style="fill:#363636;fill-opacity:1;display:inline"
       id="rect2848-89"
       width="1.988"
       height="470"
       x="116"
       y="477.36218" />
    <rect
       style="fill:#363636;fill-opacity:1;display:inline"
       id="rect2848-9"
       width="1.988"
       height="470"
       x="120"
       y="477.36218" />
    <rect
       style="fill:#363636;fill-opacity:1;display:inline"
       id="rect2848-31"
       width="1.988"
       height="470"
       x="124"
       y="477.36218" />
    <rect
       style="fill:#363636;fill-opacity:1;display:inline"
       id="rect2848-34"
       width="1.988"
       height="470"
       x="128"
       y="477.36218" />
    <rect
       style="fill:#363636;fill-opacity:1;display:inline"
       id="rect2848-38"
       width="1.988"
       height="470"
       x="132"
       y="477.36218" />
  </g>
  <g
     inkscape:groupmode="layer"
     id="layer6"
     inkscape:label="cd cradle"
     style="display:inline">
    <path
       style="fill:#363636;fill-opacity:1"
       d="m 340.125,472.75 c -113.20784,20.92908 -198.96875,120.14006 -198.96875,239.40625 0,117.19447 82.80718,215.02842 193.09375,238.25 l 0,-1.53125 96,0 0,2.5 C 542.93099,930.02286 628.15625,831.04874 628.15625,712.15625 628.15625,592.89006 542.39534,493.67908 429.1875,472.75 l -89.0625,0 z"
       id="path3088" />
    <path
       sodipodi:type="arc"
       style="fill:#3e3e3e;fill-opacity:1"
       id="path3094"
       sodipodi:cx="238.125"
       sodipodi:cy="552.5705"
       sodipodi:rx="158.125"
       sodipodi:ry="76.458328"
       d="m 396.25,552.5705 a 158.125,76.458328 0 1 1 -316.25,0 158.125,76.458328 0 1 1 316.25,0 z"
       transform="matrix(1.5051383,0,0,3.1128067,26.880604,-1007.0231)" />
  </g>
  <g
     inkscape:groupmode="layer"
     id="layer7"
     inkscape:label="center">
    <path
       sodipodi:type="arc"
       style="fill:#272626;fill-opacity:1"
       id="path3097"
       sodipodi:cx="388.95834"
       sodipodi:cy="700.27887"
       sodipodi:rx="54.791668"
       sodipodi:ry="51.666668"
       d="m 443.75001,700.27887 a 54.791668,51.666668 0 1 1 -109.58333,0 54.791668,51.666668 0 1 1 109.58333,0 z"
       transform="matrix(1.2015209,0,0,1.2741934,-81.924897,-180.13694)" />
    <path
       sodipodi:type="arc"
       style="fill:#3a3a3a;fill-opacity:1"
       id="path3099"
       sodipodi:cx="386.875"
       sodipodi:cy="710.6955"
       sodipodi:rx="36.875"
       sodipodi:ry="31.25"
       d="m 423.75,710.6955 a 36.875,31.25 0 1 1 -73.75,0 36.875,31.25 0 1 1 73.75,0 z"
       transform="matrix(1.461017,0,0,1.724,-179.68925,-513.00181)" />
  </g>
  <g
     inkscape:groupmode="layer"
     id="layer8"
     inkscape:label="center 2">
    <g
       id="g3194">
      <g
         id="g3138">
        <g
           id="g3122">
          <path
             transform="matrix(0.97340431,0,0,1.02809,6.095976,-21.833708)"
             d="m 409.37499,714.23718 a 19.583334,18.541666 0 1 1 -39.16667,0 19.583334,18.541666 0 1 1 39.16667,0 z"
             sodipodi:ry="18.541666"
             sodipodi:rx="19.583334"
             sodipodi:cy="714.23718"
             sodipodi:cx="389.79166"
             id="path3102"
             style="fill:#c4c0c1;fill-opacity:1"
             sodipodi:type="arc" />
          <g
             id="g3116">
            <rect
               y="663.23456"
               x="382.8125"
               height="31.627623"
               width="5.2083936"
               id="rect3118"
               style="fill:#c4c0c1;fill-opacity:1" />
            <path
               transform="matrix(1.1122222,0,0,1.0390625,-39.485679,-20.958643)"
               d="m 384.375,658.508 a 2.34375,1.6666666 0 1 1 -4.6875,0 2.34375,1.6666666 0 1 1 4.6875,0 z"
               sodipodi:ry="1.6666666"
               sodipodi:rx="2.34375"
               sodipodi:cy="658.508"
               sodipodi:cx="382.03125"
               id="path3120"
               style="fill:#c4c0c1;fill-opacity:1"
               sodipodi:type="arc" />
          </g>
        </g>
        <g
           id="g3128"
           transform="matrix(1,0,0,-1,0,1425.0694)">
          <path
             sodipodi:type="arc"
             style="fill:#c4c0c1;fill-opacity:1"
             id="path3130"
             sodipodi:cx="389.79166"
             sodipodi:cy="714.23718"
             sodipodi:rx="19.583334"
             sodipodi:ry="18.541666"
             d="m 409.37499,714.23718 a 19.583334,18.541666 0 1 1 -39.16667,0 19.583334,18.541666 0 1 1 39.16667,0 z"
             transform="matrix(0.97340431,0,0,1.02809,6.095976,-21.833708)" />
          <g
             id="g3132">
            <rect
               style="fill:#c4c0c1;fill-opacity:1"
               id="rect3134"
               width="5.2083936"
               height="31.627623"
               x="382.8125"
               y="663.23456" />
            <path
               sodipodi:type="arc"
               style="fill:#c4c0c1;fill-opacity:1"
               id="path3136"
               sodipodi:cx="382.03125"
               sodipodi:cy="658.508"
               sodipodi:rx="2.34375"
               sodipodi:ry="1.6666666"
               d="m 384.375,658.508 a 2.34375,1.6666666 0 1 1 -4.6875,0 2.34375,1.6666666 0 1 1 4.6875,0 z"
               transform="matrix(1.1122222,0,0,1.0390625,-39.485679,-20.958643)" />
          </g>
        </g>
      </g>
      <g
         transform="matrix(0,1,-1,0,1098.0556,327.01385)"
         id="g3172">
        <g
           id="g3174">
          <path
             sodipodi:type="arc"
             style="fill:#c4c0c1;fill-opacity:1"
             id="path3176"
             sodipodi:cx="389.79166"
             sodipodi:cy="714.23718"
             sodipodi:rx="19.583334"
             sodipodi:ry="18.541666"
             d="m 409.37499,714.23718 a 19.583334,18.541666 0 1 1 -39.16667,0 19.583334,18.541666 0 1 1 39.16667,0 z"
             transform="matrix(0.97340431,0,0,1.02809,6.095976,-21.833708)" />
          <g
             id="g3178">
            <rect
               style="fill:#c4c0c1;fill-opacity:1"
               id="rect3180"
               width="5.2083936"
               height="31.627623"
               x="382.8125"
               y="663.23456" />
            <path
               sodipodi:type="arc"
               style="fill:#c4c0c1;fill-opacity:1"
               id="path3182"
               sodipodi:cx="382.03125"
               sodipodi:cy="658.508"
               sodipodi:rx="2.34375"
               sodipodi:ry="1.6666666"
               d="m 384.375,658.508 a 2.34375,1.6666666 0 1 1 -4.6875,0 2.34375,1.6666666 0 1 1 4.6875,0 z"
               transform="matrix(1.1122222,0,0,1.0390625,-39.485679,-20.958643)" />
          </g>
        </g>
        <g
           transform="matrix(1,0,0,-1,0,1425.0694)"
           id="g3184">
          <path
             transform="matrix(0.97340431,0,0,1.02809,6.095976,-21.833708)"
             d="m 409.37499,714.23718 a 19.583334,18.541666 0 1 1 -39.16667,0 19.583334,18.541666 0 1 1 39.16667,0 z"
             sodipodi:ry="18.541666"
             sodipodi:rx="19.583334"
             sodipodi:cy="714.23718"
             sodipodi:cx="389.79166"
             id="path3186"
             style="fill:#c4c0c1;fill-opacity:1"
             sodipodi:type="arc" />
          <g
             id="g3188">
            <rect
               y="663.23456"
               x="382.8125"
               height="31.627623"
               width="5.2083936"
               id="rect3190"
               style="fill:#c4c0c1;fill-opacity:1" />
            <path
               transform="matrix(1.1122222,0,0,1.0390625,-39.485679,-20.958643)"
               d="m 384.375,658.508 a 2.34375,1.6666666 0 1 1 -4.6875,0 2.34375,1.6666666 0 1 1 4.6875,0 z"
               sodipodi:ry="1.6666666"
               sodipodi:rx="2.34375"
               sodipodi:cy="658.508"
               sodipodi:cx="382.03125"
               id="path3192"
               style="fill:#c4c0c1;fill-opacity:1"
               sodipodi:type="arc" />
          </g>
        </g>
      </g>
    </g>
    <g
       id="g3218"
       transform="matrix(0.8660254,-0.5,0.5,0.8660254,-304.61734,288.222)">
      <g
         id="g3220">
        <g
           id="g3222">
          <path
             sodipodi:type="arc"
             style="fill:#c4c0c1;fill-opacity:1"
             id="path3224"
             sodipodi:cx="389.79166"
             sodipodi:cy="714.23718"
             sodipodi:rx="19.583334"
             sodipodi:ry="18.541666"
             d="m 409.37499,714.23718 a 19.583334,18.541666 0 1 1 -39.16667,0 19.583334,18.541666 0 1 1 39.16667,0 z"
             transform="matrix(0.97340431,0,0,1.02809,6.095976,-21.833708)" />
          <g
             id="g3226">
            <rect
               style="fill:#c4c0c1;fill-opacity:1"
               id="rect3228"
               width="5.2083936"
               height="31.627623"
               x="382.8125"
               y="663.23456" />
            <path
               sodipodi:type="arc"
               style="fill:#c4c0c1;fill-opacity:1"
               id="path3230"
               sodipodi:cx="382.03125"
               sodipodi:cy="658.508"
               sodipodi:rx="2.34375"
               sodipodi:ry="1.6666666"
               d="m 384.375,658.508 a 2.34375,1.6666666 0 1 1 -4.6875,0 2.34375,1.6666666 0 1 1 4.6875,0 z"
               transform="matrix(1.1122222,0,0,1.0390625,-39.485679,-20.958643)" />
          </g>
        </g>
        <g
           transform="matrix(1,0,0,-1,0,1425.0694)"
           id="g3232">
          <path
             transform="matrix(0.97340431,0,0,1.02809,6.095976,-21.833708)"
             d="m 409.37499,714.23718 a 19.583334,18.541666 0 1 1 -39.16667,0 19.583334,18.541666 0 1 1 39.16667,0 z"
             sodipodi:ry="18.541666"
             sodipodi:rx="19.583334"
             sodipodi:cy="714.23718"
             sodipodi:cx="389.79166"
             id="path3234"
             style="fill:#c4c0c1;fill-opacity:1"
             sodipodi:type="arc" />
          <g
             id="g3236">
            <rect
               y="663.23456"
               x="382.8125"
               height="31.627623"
               width="5.2083936"
               id="rect3238"
               style="fill:#c4c0c1;fill-opacity:1" />
            <path
               transform="matrix(1.1122222,0,0,1.0390625,-39.485679,-20.958643)"
               d="m 384.375,658.508 a 2.34375,1.6666666 0 1 1 -4.6875,0 2.34375,1.6666666 0 1 1 4.6875,0 z"
               sodipodi:ry="1.6666666"
               sodipodi:rx="2.34375"
               sodipodi:cy="658.508"
               sodipodi:cx="382.03125"
               id="path3240"
               style="fill:#c4c0c1;fill-opacity:1"
               sodipodi:type="arc" />
          </g>
        </g>
      </g>
      <g
         id="g3242"
         transform="matrix(0,1,-1,0,1098.0556,327.01385)">
        <g
           id="g3244">
          <path
             transform="matrix(0.97340431,0,0,1.02809,6.095976,-21.833708)"
             d="m 409.37499,714.23718 a 19.583334,18.541666 0 1 1 -39.16667,0 19.583334,18.541666 0 1 1 39.16667,0 z"
             sodipodi:ry="18.541666"
             sodipodi:rx="19.583334"
             sodipodi:cy="714.23718"
             sodipodi:cx="389.79166"
             id="path3246"
             style="fill:#c4c0c1;fill-opacity:1"
             sodipodi:type="arc" />
          <g
             id="g3248">
            <rect
               y="663.23456"
               x="382.8125"
               height="31.627623"
               width="5.2083936"
               id="rect3250"
               style="fill:#c4c0c1;fill-opacity:1" />
            <path
               transform="matrix(1.1122222,0,0,1.0390625,-39.485679,-20.958643)"
               d="m 384.375,658.508 a 2.34375,1.6666666 0 1 1 -4.6875,0 2.34375,1.6666666 0 1 1 4.6875,0 z"
               sodipodi:ry="1.6666666"
               sodipodi:rx="2.34375"
               sodipodi:cy="658.508"
               sodipodi:cx="382.03125"
               id="path3252"
               style="fill:#c4c0c1;fill-opacity:1"
               sodipodi:type="arc" />
          </g>
        </g>
        <g
           id="g3254"
           transform="matrix(1,0,0,-1,0,1425.0694)">
          <path
             sodipodi:type="arc"
             style="fill:#c4c0c1;fill-opacity:1"
             id="path3256"
             sodipodi:cx="389.79166"
             sodipodi:cy="714.23718"
             sodipodi:rx="19.583334"
             sodipodi:ry="18.541666"
             d="m 409.37499,714.23718 a 19.583334,18.541666 0 1 1 -39.16667,0 19.583334,18.541666 0 1 1 39.16667,0 z"
             transform="matrix(0.97340431,0,0,1.02809,6.095976,-21.833708)" />
          <g
             id="g3258">
            <rect
               style="fill:#c4c0c1;fill-opacity:1"
               id="rect3260"
               width="5.2083936"
               height="31.627623"
               x="382.8125"
               y="663.23456" />
            <path
               sodipodi:type="arc"
               style="fill:#c4c0c1;fill-opacity:1"
               id="path3262"
               sodipodi:cx="382.03125"
               sodipodi:cy="658.508"
               sodipodi:rx="2.34375"
               sodipodi:ry="1.6666666"
               d="m 384.375,658.508 a 2.34375,1.6666666 0 1 1 -4.6875,0 2.34375,1.6666666 0 1 1 4.6875,0 z"
               transform="matrix(1.1122222,0,0,1.0390625,-39.485679,-20.958643)" />
          </g>
        </g>
      </g>
    </g>
    <g
       transform="matrix(0.5,-0.8660254,0.8660254,0.5,-424.34532,690.11942)"
       id="g3264">
      <g
         id="g3266">
        <g
           id="g3268">
          <path
             transform="matrix(0.97340431,0,0,1.02809,6.095976,-21.833708)"
             d="m 409.37499,714.23718 a 19.583334,18.541666 0 1 1 -39.16667,0 19.583334,18.541666 0 1 1 39.16667,0 z"
             sodipodi:ry="18.541666"
             sodipodi:rx="19.583334"
             sodipodi:cy="714.23718"
             sodipodi:cx="389.79166"
             id="path3270"
             style="fill:#c4c0c1;fill-opacity:1"
             sodipodi:type="arc" />
          <g
             id="g3272">
            <rect
               y="663.23456"
               x="382.8125"
               height="31.627623"
               width="5.2083936"
               id="rect3274"
               style="fill:#c4c0c1;fill-opacity:1" />
            <path
               transform="matrix(1.1122222,0,0,1.0390625,-39.485679,-20.958643)"
               d="m 384.375,658.508 a 2.34375,1.6666666 0 1 1 -4.6875,0 2.34375,1.6666666 0 1 1 4.6875,0 z"
               sodipodi:ry="1.6666666"
               sodipodi:rx="2.34375"
               sodipodi:cy="658.508"
               sodipodi:cx="382.03125"
               id="path3276"
               style="fill:#c4c0c1;fill-opacity:1"
               sodipodi:type="arc" />
          </g>
        </g>
        <g
           id="g3278"
           transform="matrix(1,0,0,-1,0,1425.0694)">
          <path
             sodipodi:type="arc"
             style="fill:#c4c0c1;fill-opacity:1"
             id="path3280"
             sodipodi:cx="389.79166"
             sodipodi:cy="714.23718"
             sodipodi:rx="19.583334"
             sodipodi:ry="18.541666"
             d="m 409.37499,714.23718 a 19.583334,18.541666 0 1 1 -39.16667,0 19.583334,18.541666 0 1 1 39.16667,0 z"
             transform="matrix(0.97340431,0,0,1.02809,6.095976,-21.833708)" />
          <g
             id="g3282">
            <rect
               style="fill:#c4c0c1;fill-opacity:1"
               id="rect3284"
               width="5.2083936"
               height="31.627623"
               x="382.8125"
               y="663.23456" />
            <path
               sodipodi:type="arc"
               style="fill:#c4c0c1;fill-opacity:1"
               id="path3286"
               sodipodi:cx="382.03125"
               sodipodi:cy="658.508"
               sodipodi:rx="2.34375"
               sodipodi:ry="1.6666666"
               d="m 384.375,658.508 a 2.34375,1.6666666 0 1 1 -4.6875,0 2.34375,1.6666666 0 1 1 4.6875,0 z"
               transform="matrix(1.1122222,0,0,1.0390625,-39.485679,-20.958643)" />
          </g>
        </g>
      </g>
      <g
         transform="matrix(0,1,-1,0,1098.0556,327.01385)"
         id="g3288">
        <g
           id="g3290">
          <path
             sodipodi:type="arc"
             style="fill:#c4c0c1;fill-opacity:1"
             id="path3292"
             sodipodi:cx="389.79166"
             sodipodi:cy="714.23718"
             sodipodi:rx="19.583334"
             sodipodi:ry="18.541666"
             d="m 409.37499,714.23718 a 19.583334,18.541666 0 1 1 -39.16667,0 19.583334,18.541666 0 1 1 39.16667,0 z"
             transform="matrix(0.97340431,0,0,1.02809,6.095976,-21.833708)" />
          <g
             id="g3294">
            <rect
               style="fill:#c4c0c1;fill-opacity:1"
               id="rect3296"
               width="5.2083936"
               height="31.627623"
               x="382.8125"
               y="663.23456" />
            <path
               sodipodi:type="arc"
               style="fill:#c4c0c1;fill-opacity:1"
               id="path3298"
               sodipodi:cx="382.03125"
               sodipodi:cy="658.508"
               sodipodi:rx="2.34375"
               sodipodi:ry="1.6666666"
               d="m 384.375,658.508 a 2.34375,1.6666666 0 1 1 -4.6875,0 2.34375,1.6666666 0 1 1 4.6875,0 z"
               transform="matrix(1.1122222,0,0,1.0390625,-39.485679,-20.958643)" />
          </g>
        </g>
        <g
           transform="matrix(1,0,0,-1,0,1425.0694)"
           id="g3300">
          <path
             transform="matrix(0.97340431,0,0,1.02809,6.095976,-21.833708)"
             d="m 409.37499,714.23718 a 19.583334,18.541666 0 1 1 -39.16667,0 19.583334,18.541666 0 1 1 39.16667,0 z"
             sodipodi:ry="18.541666"
             sodipodi:rx="19.583334"
             sodipodi:cy="714.23718"
             sodipodi:cx="389.79166"
             id="path3302"
             style="fill:#c4c0c1;fill-opacity:1"
             sodipodi:type="arc" />
          <g
             id="g3304">
            <rect
               y="663.23456"
               x="382.8125"
               height="31.627623"
               width="5.2083936"
               id="rect3306"
               style="fill:#c4c0c1;fill-opacity:1" />
            <path
               transform="matrix(1.1122222,0,0,1.0390625,-39.485679,-20.958643)"
               d="m 384.375,658.508 a 2.34375,1.6666666 0 1 1 -4.6875,0 2.34375,1.6666666 0 1 1 4.6875,0 z"
               sodipodi:ry="1.6666666"
               sodipodi:rx="2.34375"
               sodipodi:cy="658.508"
               sodipodi:cx="382.03125"
               id="path3308"
               style="fill:#c4c0c1;fill-opacity:1"
               sodipodi:type="arc" />
          </g>
        </g>
      </g>
    </g>
  </g>
  <g
     inkscape:groupmode="layer"
     id="layer3"
     inkscape:label="borders"
     style="display:inline">
    <rect
       style="fill:#b1b1b1;fill-opacity:1"
       id="rect3634"
       width="5.9651871"
       height="480.07983"
       x="629.09418"
       y="472.29327" />
    <rect
       style="fill:#b1b1b1;fill-opacity:1;display:inline"
       id="rect3634-1"
       width="5.9651871"
       height="480.07983"
       x="135.06647"
       y="472.42181" />
    <rect
       style="fill:#b1b1b1;fill-opacity:1;display:inline"
       id="rect3634-4"
       width="5.9651871"
       height="480.07983"
       x="85.034401"
       y="472.34378" />
    <rect
       style="fill:#b1b1b1;fill-opacity:1"
       id="rect3667"
       width="550.00183"
       height="5.9811039"
       x="84.998657"
       y="472.32513" />
    <rect
       style="fill:#b1b1b1;fill-opacity:1;display:inline"
       id="rect3667-0"
       width="550.00183"
       height="5.9811039"
       x="85.007683"
       y="946.44543" />
    <path
       sodipodi:type="arc"
       style="fill:#b2b2b2;fill-opacity:1"
       id="path2859"
       sodipodi:cx="224"
       sodipodi:cy="477.48718"
       sodipodi:rx="16.103554"
       sodipodi:ry="16.875"
       d="m 239.7064,473.76258 a 16.103554,16.875 0 1 1 -31.39557,-0.0789 L 224,477.48718 z"
       sodipodi:start="6.0606353"
       sodipodi:end="9.6521249"
       transform="matrix(-1,0,0,1,448.00351,0)" />
    <path
       sodipodi:type="arc"
       style="fill:#b1b1b1;fill-opacity:1;display:inline"
       id="path2859-1"
       sodipodi:cx="224"
       sodipodi:cy="477.48718"
       sodipodi:rx="16.103554"
       sodipodi:ry="16.875"
       d="m 239.7064,473.76258 a 16.103554,16.875 0 1 1 -31.39557,-0.0789 L 224,477.48718 z"
       sodipodi:start="6.0606353"
       sodipodi:end="9.6521249"
       transform="matrix(-1,0,0,-1,447.97782,1424.0499)" />
    <path
       sodipodi:type="arc"
       style="fill:#b1b1b1;fill-opacity:1;display:inline"
       id="path2859-1-7"
       sodipodi:cx="224"
       sodipodi:cy="477.48718"
       sodipodi:rx="16.103554"
       sodipodi:ry="16.875"
       d="m 239.7064,473.76258 a 16.103554,16.875 0 1 1 -31.39557,-0.0789 L 224,477.48718 z"
       sodipodi:start="6.0606353"
       sodipodi:end="9.6521249"
       transform="matrix(-1,0,0,-1,761.96058,1424.0428)" />
    <path
       sodipodi:type="arc"
       style="fill:#b1b1b1;fill-opacity:1;display:inline"
       id="path2859-0"
       sodipodi:cx="224"
       sodipodi:cy="477.48718"
       sodipodi:rx="16.103554"
       sodipodi:ry="16.875"
       d="m 239.7064,473.76258 a 16.103554,16.875 0 1 1 -31.39557,-0.0789 L 224,477.48718 z"
       sodipodi:start="6.0606353"
       sodipodi:end="9.6521249"
       transform="matrix(-1,0,0,1,761.97783,0.04453714)" />
  </g>
  <g
     inkscape:groupmode="layer"
     id="layer4"
     inkscape:label="shine"
     style="display:inline">
    <path
       style="opacity:0.38053098;fill:url(#linearGradient3733);fill-opacity:1"
       d="m 85,472.1875 0,335.09375 C 230.71683,629.58536 422.32012,512.51669 634.875,487.83807 l 0,-15.65057 -549.875,0 z"
       id="rect2953" />
  </g>
</svg>
