<?xml version="1.0" encoding="UTF-8"?>
<svg width="336px" height="149px" viewBox="0 0 336 149" version="1.1" xmlns="http://www.w3.org/2000/svg" xmlns:xlink="http://www.w3.org/1999/xlink">
    <!-- Generator: Sketch 52.3 (67297) - http://www.bohemiancoding.com/sketch -->
    <title>Group</title>
    <desc>Created with Sketch.</desc>
    <g id="Final-design" stroke="none" stroke-width="1" fill="none" fill-rule="evenodd">
        <g id="FB-shown" transform="translate(-545.000000, -199.000000)">
            <g id="modal" transform="translate(399.000000, 199.000000)">
                <g id="window">
                    <g id="background-shapes" transform="translate(402.000000, -25.000000) scale(-1, 1) rotate(-180.000000) translate(-402.000000, 25.000000) translate(129.000000, -232.000000)">
                        <g id="Group">
                            <!--path d="M244.979602,89.8275728 C268.360646,92.9780467 293.04581,80.5605985 303.997345,60.1393861 C315.480385,38.7268098 341.932979,26.2668926 365.990094,30.9388401 L404.843069,111.466066 C381.021804,107.369533 355.229239,119.821166 343.942676,140.866033 L343.490779,141.709282 C332.539244,162.130495 307.854468,174.547973 284.473063,171.397899 L244.979602,89.8275728 Z" id="Fill-1" fill="#bed2e0" transform="translate(324.911336, 100.922785) rotate(-174.000000) translate(-324.911336, -100.922785) "></path-->
                            <path d="M126.5,374 C56.6359792,374 -3.59534624e-14,317.140163 0,247 C1.79767312e-14,176.859837 56.6359792,120 126.5,120 C196.364021,120 253,176.859837 253,247 C253,317.140163 196.364021,374 126.5,374 Z" id="oval" fill="#cc274c"></path>
                            <path d="M401.959951,387.932612 L104.992905,267.370702 C81.5628731,257.858638 70.2433599,231.062789 79.7096979,207.519629 L79.710204,207.51837 C89.1760358,183.976469 115.843618,172.601058 139.27365,182.113122 L139.274903,182.113631 C162.703682,191.625186 189.372011,180.251542 198.838349,156.708382 C208.305193,133.163963 234.972269,121.789811 258.402302,131.301875 C281.832334,140.813939 308.49941,129.439787 317.965748,105.896627 C327.432086,82.3534665 354.099162,70.9793145 377.530447,80.4918866 L377.531699,80.4923951 C400.960479,90.0039502 427.629314,78.629048 437.095652,55.085888 C446.56199,31.5427281 473.229572,20.1673173 496.659604,29.679381 C520.089636,39.1914446 531.408644,65.9885522 521.942306,89.5317122 L401.959951,387.932612 Z" id="Fill-1" fill="#6a7285" transform="translate(300.826038, 207.126058) rotate(7.000000) translate(-300.826038, -207.126058) "></path>
                        </g>
                    </g>
                </g>
            </g>
        </g>
    </g>
</svg>
