<?xml version="1.0" standalone="no"?>
<!DOCTYPE svg PUBLIC "-//W3C//DTD SVG 20010904//EN"
 "http://www.w3.org/TR/2001/REC-SVG-20010904/DTD/svg10.dtd">
<svg version="1.0" xmlns="http://www.w3.org/2000/svg"
 width="1280.000000pt" height="904.000000pt" viewBox="0 0 1280.000000 904.000000"
 preserveAspectRatio="xMidYMid meet">
<metadata>
Created by potrace 1.15, written by Peter Selinger 2001-2017
</metadata>
<g transform="translate(0.000000,904.000000) scale(0.100000,-0.100000)"
fill="#2196f3" stroke="none">
<path d="M6720 8999 c-11 -32 -11 -45 -2 -60 17 -27 15 -127 -3 -145 -8 -9
-15 -24 -15 -33 0 -10 7 -24 15 -31 11 -9 15 -32 15 -77 0 -58 -3 -67 -25 -85
-18 -14 -25 -29 -25 -53 0 -24 7 -39 25 -53 28 -22 32 -53 10 -72 -8 -7 -15
-25 -15 -40 0 -15 7 -33 15 -40 8 -7 15 -29 15 -50 0 -32 -7 -44 -47 -82 -72
-66 -232 -191 -381 -297 -72 -52 -131 -95 -130 -97 2 -1 57 9 123 21 392 76
764 85 1013 24 45 -11 88 -19 94 -17 7 3 -23 23 -65 46 -74 40 -280 180 -474
324 -74 54 -93 73 -93 93 0 14 4 25 8 25 5 0 14 12 21 27 10 23 9 30 -8 54
-27 36 -27 61 -1 77 43 26 42 89 0 119 -16 12 -20 26 -20 77 0 48 4 65 15 70
9 3 15 18 15 34 0 16 -7 35 -15 42 -18 15 -21 111 -3 139 16 26 -8 101 -32
101 -11 0 -22 -15 -30 -41z"/>
<path d="M6660 7810 c-204 -8 -400 -27 -439 -42 -36 -13 -396 -286 -462 -349
-71 -70 -151 -176 -233 -314 -102 -170 -127 -251 -146 -475 -10 -114 -8 -141
15 -305 14 -99 25 -183 25 -186 0 -3 62 12 138 33 191 54 429 84 987 124 262
18 426 19 675 5 102 -6 275 -15 385 -21 114 -5 226 -16 260 -25 34 -9 103 -41
160 -76 55 -33 104 -61 110 -62 5 -1 16 18 24 43 11 35 15 105 15 310 0 252
-1 271 -27 388 -15 68 -36 144 -47 168 -28 65 -148 261 -184 302 -42 48 -288
243 -416 330 -58 39 -124 84 -148 101 -29 20 -63 33 -110 40 -96 15 -366 20
-582 11z"/>
<path d="M12023 7207 l-91 -82 -1 -72 -1 -72 206 -1 206 -1 -8 68 c-11 109
-13 113 -103 181 -46 34 -91 62 -100 62 -9 0 -57 -37 -108 -83z"/>
<path d="M1418 7063 c-24 -20 -67 -59 -95 -87 -53 -50 -53 -51 -53 -112 l0
-61 68 -6 c37 -4 129 -7 205 -7 l137 0 0 43 c-1 90 -16 130 -62 171 -51 46
-127 96 -145 96 -7 0 -32 -17 -55 -37z"/>
<path d="M12055 6863 c-11 -2 -41 -11 -67 -19 l-46 -15 -6 -87 c-4 -48 -9
-107 -12 -131 -5 -42 -5 -44 18 -37 99 29 169 38 258 32 52 -3 106 -9 119 -12
l23 -7 -7 109 c-4 60 -12 114 -17 121 -20 25 -118 53 -181 52 -34 -1 -71 -3
-82 -6z"/>
<path d="M1395 6674 c-11 -3 -41 -12 -66 -20 l-47 -15 -7 -125 c-4 -69 -5
-127 -4 -129 2 -1 38 6 79 17 61 16 95 19 185 14 61 -3 121 -8 134 -12 22 -7
23 -5 17 32 -3 21 -8 74 -12 118 l-7 78 -46 21 c-45 20 -179 33 -226 21z"/>
<path d="M12008 6570 c-74 -13 -158 -40 -158 -51 0 -16 22 -99 26 -99 2 0 39
12 81 27 69 24 92 26 208 26 96 0 149 -5 203 -20 l72 -19 0 42 0 42 -57 21
c-108 40 -252 51 -375 31z"/>
<path d="M8457 6378 c-4 -46 -7 -112 -7 -148 l-1 -65 -50 -40 c-85 -67 -318
-301 -329 -331 -6 -16 -14 -72 -17 -126 l-6 -98 33 12 c34 11 359 6 680 -11
80 -4 153 -6 163 -3 16 4 17 12 12 61 -28 250 -95 343 -362 496 l-83 47 0 52
c0 88 -13 236 -20 236 -4 0 -10 -37 -13 -82z"/>
<path d="M12085 6435 c-49 -10 -144 -43 -145 -49 -3 -14 -40 -1034 -40 -1088
l0 -78 255 0 255 0 -5 68 c-5 63 -10 179 -35 752 -14 334 -16 347 -47 367 -24
16 -131 43 -163 42 -8 0 -42 -7 -75 -14z"/>
<path d="M5090 6273 l0 -138 -205 -200 -205 -201 0 -123 0 -123 425 4 c233 2
427 6 430 10 3 3 8 57 12 121 l6 116 -42 65 c-47 71 -150 174 -281 280 l-85
68 -6 62 c-4 33 -7 91 -8 129 -1 60 -3 67 -21 67 -19 0 -20 -7 -20 -137z"/>
<path d="M1341 6379 c-24 -5 -69 -16 -99 -24 -48 -14 -53 -19 -48 -38 4 -12 9
-37 13 -54 3 -18 7 -33 9 -33 2 0 39 12 81 26 104 36 236 43 353 19 152 -31
136 -32 132 13 -4 38 -7 42 -55 61 -29 11 -72 25 -97 31 -54 11 -227 11 -289
-1z"/>
<path d="M1455 6254 c-48 -8 -153 -44 -163 -57 -6 -7 -17 -211 -26 -457 -9
-245 -19 -505 -22 -577 l-7 -133 258 0 258 0 -7 118 c-10 187 -46 970 -46
1014 0 38 -2 40 -53 63 -53 24 -137 37 -192 29z"/>
<path d="M10846 6074 c-3 -9 -6 -44 -6 -80 l0 -64 -71 -67 -71 -68 5 -57 5
-58 -38 0 c-31 0 -37 -3 -34 -17 5 -18 41 -19 422 -4 40 1 42 20 2 27 -24 5
-31 13 -36 43 -13 70 -65 143 -129 179 -13 7 -18 29 -22 95 -6 83 -14 105 -27
71z"/>
<path d="M6650 5874 c-25 -2 -112 -8 -195 -14 -220 -16 -415 -37 -634 -67
l-194 -26 6 -145 c3 -79 8 -146 10 -148 2 -2 480 10 1063 26 582 16 1101 30
1152 30 l92 0 0 134 c0 120 -2 135 -17 140 -38 11 -194 36 -323 52 -100 12
-237 17 -525 19 -214 1 -410 1 -435 -1z"/>
<path d="M2755 5828 c-48 -37 -104 -117 -121 -173 -14 -43 -23 -56 -46 -64
-22 -8 -28 -16 -28 -39 0 -32 13 -48 45 -54 22 -4 33 -50 34 -146 1 -51 0 -53
-29 -58 -24 -5 -30 -12 -30 -33 0 -14 12 -44 26 -65 l27 -39 -8 -436 c-4 -240
-9 -440 -12 -445 -3 -4 -18 -5 -34 -2 -29 5 -29 5 -29 -43 0 -42 4 -52 26 -68
l26 -19 -7 -397 -8 -397 -28 0 c-25 0 -29 -4 -29 -28 0 -19 11 -38 31 -58 l31
-29 -4 -342 -3 -342 43 -36 c31 -27 56 -64 91 -139 65 -134 91 -239 94 -366 1
-62 4 -92 9 -80 4 12 7 44 6 70 -2 42 2 54 25 78 29 31 35 71 17 132 -6 19
-13 72 -17 117 l-6 82 40 41 c32 31 48 40 75 40 52 0 80 -49 106 -184 12 -59
19 -112 17 -119 -2 -7 -6 -50 -10 -97 l-6 -85 36 35 c68 65 74 78 64 145 -13
86 -12 200 2 227 35 68 92 97 165 84 31 -6 39 -14 59 -58 23 -50 24 -55 18
-264 l-6 -213 79 6 c43 3 81 7 82 9 2 1 8 65 13 142 11 180 17 196 97 236 35
18 38 17 94 -27 l38 -30 33 18 c48 26 82 14 108 -36 15 -31 20 -55 17 -95 l-3
-54 47 0 c44 0 49 2 61 32 19 44 63 95 98 114 25 12 33 13 63 0 37 -16 44 -29
71 -158 l17 -78 -37 -156 -37 -156 48 -69 c26 -38 53 -74 59 -79 7 -5 54 -7
112 -3 l102 6 3 261 c5 284 14 343 64 393 30 29 57 24 96 -18 44 -47 55 -111
67 -388 5 -139 12 -256 15 -259 6 -5 355 10 706 31 113 7 406 12 651 11 l447
-1 5 40 c4 27 16 50 36 70 25 26 40 31 90 35 33 2 72 2 85 -2 35 -9 91 -60
106 -96 12 -29 14 -30 79 -30 36 0 282 11 546 25 264 14 492 25 508 25 26 0
27 -2 27 -55 l0 -55 33 0 c40 0 682 31 683 33 1 1 -2 29 -7 62 -10 84 -10 333
1 437 5 48 16 103 26 123 28 60 86 60 150 0 20 -19 38 -35 39 -35 1 0 5 18 9
41 7 44 52 99 81 99 9 0 29 -7 44 -15 27 -13 29 -13 34 5 9 35 66 60 137 60
67 0 197 -27 262 -54 l38 -16 20 42 c25 52 47 79 83 102 53 35 130 -3 198 -97
l27 -37 26 44 c14 24 42 58 62 76 36 31 40 32 98 27 55 -5 63 -3 83 17 27 28
108 46 213 49 l75 2 23 -69 c13 -39 26 -92 29 -119 7 -54 14 -52 31 9 7 22 29
67 50 100 87 134 153 107 201 -82 9 -36 21 -64 26 -63 6 1 29 11 52 22 37 18
43 26 53 71 30 132 54 187 97 226 l42 39 -10 258 c-6 141 -13 282 -17 312 -10
81 -17 83 -240 78 -101 -3 -185 -7 -187 -9 -2 -2 -7 -153 -11 -336 l-7 -332
-196 0 c-204 0 -1511 -14 -2418 -26 l-522 -6 6 511 c5 425 4 511 -7 511 -8 0
-70 31 -139 69 -210 115 -329 173 -369 178 -29 4 -45 -1 -72 -21 -54 -39 -136
-80 -235 -117 -101 -38 -166 -76 -254 -149 -48 -40 -68 -66 -98 -128 l-38 -77
1 -391 1 -392 -171 -6 c-94 -3 -722 -10 -1396 -16 -674 -5 -1328 -11 -1455
-13 l-230 -2 -3 337 -2 336 33 21 c30 18 32 24 29 60 -4 37 -7 41 -31 41 -14
0 -31 4 -37 8 -8 5 -15 114 -23 337 -6 182 -13 351 -16 377 -4 45 -3 47 37 73
38 25 40 29 35 67 -7 48 -8 50 -54 57 l-38 6 -3 55 c-2 30 -11 226 -21 435
l-18 380 39 33 c32 29 38 40 38 74 0 39 -1 40 -30 36 l-30 -5 0 128 0 127 35
12 c29 10 33 14 25 30 -5 10 -20 20 -32 24 -15 4 -31 24 -45 54 -24 49 -112
155 -143 172 -13 7 -25 4 -45 -12z"/>
<path d="M9663 5810 c-37 -41 -40 -55 -18 -64 13 -4 15 -36 15 -202 l0 -197
-46 7 c-26 3 -57 6 -70 6 -23 0 -24 4 -24 61 0 52 3 62 20 66 26 7 25 15 -5
63 l-25 40 -40 -44 c-22 -24 -40 -46 -40 -48 0 -3 9 -8 20 -11 18 -5 20 -14
20 -100 l0 -95 -102 -151 -103 -151 -619 -5 c-340 -3 -622 -8 -627 -11 -5 -3
-9 -33 -9 -68 l0 -63 512 -6 c281 -4 676 -7 877 -7 201 0 381 -4 399 -9 l32
-10 0 268 c0 179 4 271 11 278 8 8 3 23 -17 54 l-27 43 -38 -43 -39 -44 0 191
c0 182 1 190 20 195 20 5 20 5 0 40 -33 56 -41 58 -77 17z"/>
<path d="M3921 5784 c-11 -14 -25 -41 -32 -61 -10 -31 -9 -38 5 -48 14 -11 16
-34 14 -191 -3 -188 -2 -186 -40 -94 l-15 35 -36 -71 c-35 -69 -35 -71 -17
-90 16 -18 17 -33 10 -219 -4 -110 -4 -409 1 -665 24 -1394 31 -1745 35 -1749
2 -2 216 0 476 5 l473 9 10 300 10 301 80 73 c84 77 139 111 177 111 36 0 99
-38 197 -118 66 -55 90 -81 95 -104 8 -41 8 -178 -1 -178 -4 0 -50 22 -102 49
-86 44 -98 48 -115 36 -10 -8 -49 -24 -85 -36 -54 -18 -77 -32 -124 -80 l-58
-59 2 -145 1 -145 162 0 c90 0 245 3 346 7 l183 6 -8 721 c-4 397 -11 917 -14
1156 l-6 435 -487 -4 -488 -3 0 191 c0 163 2 191 15 191 18 0 20 21 3 40 -7 7
11 -6 40 -29 l52 -43 0 -159 0 -159 435 0 435 0 0 165 c0 140 -2 165 -15 165
-10 0 -15 10 -15 30 0 22 4 28 15 24 12 -5 15 3 15 40 l0 47 -457 -3 c-414 -3
-461 -5 -492 -21 -31 -15 -36 -16 -51 -2 -16 15 -20 12 -49 -27 -34 -46 -39
-68 -16 -68 13 0 15 -28 15 -194 l0 -193 -52 -7 c-78 -9 -98 -7 -98 7 0 8 -11
19 -24 27 -18 9 -27 24 -31 54 -6 33 -20 54 -70 106 l-64 65 -7 109 c-5 78 -4
110 5 115 8 5 4 23 -14 64 -13 31 -27 57 -30 57 -10 0 -65 -94 -65 -112 0 -11
7 -18 20 -18 18 0 20 -7 20 -60 l0 -60 -61 0 -60 0 3 178 3 177 28 -3 c36 -4
36 23 1 84 -36 61 -57 71 -83 38z m1223 -463 c27 -18 66 -67 66 -84 0 -5 -10
-1 -22 7 -28 20 -61 20 -97 2 -39 -20 -54 -42 -46 -66 6 -18 14 -20 96 -20
l89 0 0 -49 c0 -83 3 -81 -126 -81 l-114 0 0 102 0 102 52 53 c29 29 57 53 63
53 5 0 23 -9 39 -19z m-4 -837 c65 -42 139 -111 186 -175 33 -45 34 -50 34
-138 0 -50 -3 -91 -6 -91 -4 0 -26 18 -49 39 -41 37 -95 61 -141 61 -45 0
-147 -63 -219 -136 -83 -84 -85 -88 -85 -266 l0 -117 -32 6 c-18 3 -35 8 -38
10 -3 3 -6 135 -8 294 -4 333 -1 344 85 415 41 34 201 134 213 134 3 0 30 -16
60 -36z m-876 -52 c32 -29 113 -156 119 -187 6 -32 -7 -162 -17 -173 -4 -3
-30 17 -59 45 -47 45 -64 54 -169 88 -65 21 -118 41 -118 44 0 3 16 33 36 66
40 67 89 123 119 136 25 11 65 2 89 -19z m6 -1083 c83 -56 109 -98 119 -189 4
-40 5 -88 2 -108 l-6 -35 -25 35 c-31 46 -63 64 -125 73 -81 11 -109 23 -153
66 l-41 41 29 42 c34 50 105 116 124 116 7 0 42 -19 76 -41z"/>
<path d="M10740 5621 l-35 -6 -3 -118 -3 -117 162 2 162 3 -2 110 c-1 89 -5
112 -18 123 -18 13 -195 15 -263 3z"/>
<path d="M9047 5466 c-31 -38 -35 -46 -22 -54 13 -7 17 -42 22 -205 l6 -197
34 0 33 0 0 205 c0 198 1 205 20 205 11 0 20 3 20 8 -1 7 -67 82 -73 82 -2 0
-19 -20 -40 -44z"/>
<path d="M8361 5403 c-25 -3 -57 -13 -72 -24 -15 -10 -32 -19 -37 -19 -24 0
-22 -24 7 -69 30 -46 31 -52 31 -154 l0 -107 56 0 55 0 -6 118 -6 117 38 50
c21 27 51 56 66 65 24 13 30 13 53 0 15 -8 41 -39 57 -69 28 -50 31 -64 35
-167 5 -123 5 -124 75 -124 l27 0 0 81 0 81 40 -4 c25 -2 40 1 40 8 0 6 -22
56 -49 111 -44 90 -52 101 -81 107 -33 6 -250 6 -329 -1z"/>
<path d="M10728 5363 c-92 -4 -98 -5 -98 -25 0 -11 15 -35 34 -52 l35 -31 -14
-445 c-7 -245 -12 -447 -10 -449 2 -1 89 0 194 4 l190 8 -4 26 c-2 14 -10 217
-16 450 l-13 424 32 27 c18 15 32 33 32 42 0 27 -60 31 -362 21z"/>
<path d="M8105 5351 l-40 -6 -6 -160 c-3 -88 -5 -162 -3 -165 1 -3 23 -4 48
-2 l46 4 0 169 c0 93 -1 168 -2 168 -2 -1 -21 -5 -43 -8z"/>
<path d="M8898 5220 c-44 -56 -47 -62 -49 -127 l-2 -68 46 1 c26 0 49 3 52 6
3 3 4 60 3 126 l-3 121 -47 -59z"/>
<path d="M11812 5148 l3 -53 330 -7 c182 -4 335 -5 341 -3 7 2 11 24 10 57
l-1 53 -343 3 -343 2 3 -52z"/>
<path d="M6172 5173 l-433 -3 6 -468 c4 -257 10 -761 14 -1120 4 -359 10 -655
13 -657 3 -3 28 -8 56 -12 l50 -6 6 84 c3 46 11 260 17 474 22 805 46 1505 50
1509 2 2 387 6 856 7 l851 4 6 -100 c3 -55 10 -318 16 -585 14 -660 14 -659
50 -724 l30 -53 0 -243 c0 -242 0 -243 25 -287 17 -27 33 -43 45 -43 20 0 20
15 20 1115 l0 1115 -622 -2 c-343 -2 -818 -4 -1056 -5z"/>
<path d="M12015 5035 c-27 -7 -69 -20 -92 -30 l-43 -17 0 -142 c0 -77 -3 -299
-7 -492 l-6 -350 -46 0 -46 1 -3 -52 -3 -52 52 -26 52 -27 79 26 c170 57 311
54 466 -9 36 -15 49 -16 86 -5 42 11 44 14 50 57 13 96 11 100 -41 109 l-48 9
-16 310 c-9 171 -20 383 -24 473 l-7 163 -42 21 c-22 12 -63 27 -91 34 -61 17
-203 16 -270 -1z"/>
<path d="M1158 4958 c2 -29 5 -54 6 -54 0 -1 153 -4 339 -6 l337 -4 0 58 0 58
-344 0 -343 0 5 -52z"/>
<path d="M6785 4869 c-275 -3 -548 -7 -608 -8 l-107 -1 2 -377 3 -377 27 -7
c26 -7 27 -5 64 99 21 58 49 118 63 133 14 16 130 85 256 155 127 70 248 140
271 155 l41 28 249 -123 c218 -108 255 -129 296 -174 56 -60 122 -160 138
-208 8 -23 18 -34 31 -34 18 0 19 12 19 375 l0 375 -122 -2 c-68 -1 -348 -5
-623 -9z"/>
<path d="M1350 4844 c-30 -8 -72 -22 -92 -31 l-38 -16 0 -489 0 -488 -50 0
-50 0 0 -55 0 -55 50 -25 51 -26 67 25 c162 58 326 56 465 -6 44 -20 50 -21
95 -7 l47 15 3 71 3 72 -43 8 -43 9 -7 64 c-5 36 -17 247 -28 470 -23 464 -12
424 -127 460 -78 24 -220 26 -303 4z"/>
<path d="M9793 4753 c-61 -25 -59 3 -72 -848 -6 -429 -14 -878 -18 -997 l-6
-218 88 0 88 0 -6 298 c-4 163 -12 601 -18 972 -6 371 -14 705 -17 741 l-7 66
-32 -14z"/>
<path d="M8005 4153 c10 -1164 16 -1461 30 -1467 10 -3 14 153 19 772 3 427 8
893 10 1035 l5 257 -34 0 -35 0 5 -597z"/>
<path d="M9125 4099 c4 -360 10 -829 14 -1044 l6 -390 69 -3 69 -3 -7 426 -7
425 200 0 201 0 0 59 c0 53 -2 59 -22 64 -13 3 -103 9 -201 13 -97 4 -179 10
-181 13 -3 3 -6 163 -7 355 l-3 349 84 68 c47 38 92 72 102 75 10 3 21 17 24
32 15 66 7 62 115 62 l99 0 0 33 c0 17 3 41 6 53 5 20 -1 21 -233 38 -131 9
-260 20 -287 23 l-48 6 7 -654z"/>
<path d="M8240 4606 c0 -23 19 -203 26 -244 l5 -32 67 54 c37 29 98 75 137
101 62 42 74 47 111 42 50 -5 138 -57 215 -126 l56 -50 7 52 c3 29 6 87 6 130
l0 77 -178 0 c-99 0 -240 3 -315 7 -125 6 -137 5 -137 -11z"/>
<path d="M9521 4258 c-104 -213 -181 -436 -181 -525 l0 -33 170 0 170 0 0 280
0 280 -35 70 c-19 39 -39 70 -45 70 -5 0 -40 -64 -79 -142z"/>
<path d="M10808 4343 l-198 -3 0 -44 c0 -42 2 -45 31 -51 l32 -7 -7 -404 -8
-404 221 0 221 0 0 68 c0 37 -5 177 -10 312 -5 135 -10 285 -11 335 l-2 89 30
8 c26 7 31 14 37 49 4 23 5 43 4 44 -8 7 -166 10 -340 8z"/>
<path d="M8515 4182 c-33 -23 -94 -75 -135 -117 l-75 -76 1 -92 c0 -50 4 -113
8 -139 l7 -48 265 0 264 0 -6 193 c-7 220 2 199 -116 269 -40 24 -86 42 -111
45 -37 4 -50 0 -102 -35z"/>
<path d="M12020 3836 c-30 -7 -79 -20 -107 -30 -53 -17 -53 -18 -53 -59 0 -37
-16 -615 -36 -1257 l-6 -215 -31 -32 c-17 -18 -29 -35 -26 -37 2 -2 40 -9 84
-15 142 -20 206 -40 265 -85 30 -22 151 -137 268 -255 116 -118 212 -211 212
-205 0 5 -7 137 -15 294 -14 267 -68 1351 -80 1595 -3 61 -8 142 -11 182 l-6
71 -51 21 c-29 11 -70 25 -92 30 -53 14 -246 12 -315 -3z"/>
<path d="M1442 3660 c-73 -10 -211 -47 -228 -61 -8 -6 -13 -106 -18 -317 -3
-169 -9 -351 -13 -405 l-6 -99 124 102 c149 122 211 153 341 174 53 9 122 25
154 37 l57 21 -6 77 c-4 42 -9 149 -13 239 l-7 163 -36 19 c-90 45 -233 66
-349 50z"/>
<path d="M8260 3416 c0 -57 3 -117 6 -134 l6 -31 67 58 c90 80 180 141 207
141 30 0 208 -90 266 -134 l46 -36 6 48 c3 26 8 80 12 120 l6 72 -311 0 -311
0 0 -104z"/>
<path d="M9580 3215 c-130 -171 -206 -337 -217 -472 l-6 -73 148 0 147 0 -7
252 c-4 138 -10 275 -14 302 l-6 51 -45 -60z"/>
<path d="M8543 3122 c-67 -38 -164 -114 -191 -152 -20 -27 -22 -41 -22 -176
l0 -147 68 6 c37 4 139 9 227 12 88 3 179 8 203 11 l42 5 0 183 0 183 -110 47
c-146 62 -154 63 -217 28z"/>
<path d="M7685 2781 l-70 -6 0 -63 0 -62 76 0 c42 0 124 3 182 7 l107 6 0 64
0 63 -112 -2 c-62 -1 -144 -4 -183 -7z"/>
<path d="M5680 2701 l0 -71 174 0 174 0 6 31 c3 17 6 47 6 65 l0 34 -103 0
c-57 0 -138 3 -180 6 l-77 7 0 -72z"/>
<path d="M8100 2710 l0 -60 61 0 c52 0 60 2 55 16 -3 9 -6 36 -6 60 l0 44 -55
0 -55 0 0 -60z"/>
<path d="M7710 1556 l-205 -11 60 -36 c33 -20 630 -368 1327 -773 l1267 -736
1313 1 1313 1 -260 85 c-143 46 -386 125 -540 175 -283 91 -811 261 -1140 368
-99 32 -263 86 -365 119 -162 52 -567 184 -1180 383 -213 69 -511 166 -820
267 -118 38 -285 92 -370 120 -86 28 -165 50 -175 49 -11 -1 -112 -6 -225 -12z"/>
<path d="M5305 1495 c-121 -35 -375 -107 -565 -160 -190 -53 -536 -151 -770
-217 -469 -132 -947 -266 -1482 -417 -194 -55 -513 -145 -708 -200 -195 -55
-533 -150 -750 -211 -217 -61 -534 -150 -703 -198 l-308 -87 1285 -3 1285 -2
698 309 c384 170 1036 458 1448 641 413 182 868 384 1013 448 177 78 257 118
245 123 -10 3 -110 11 -223 18 -113 7 -214 14 -225 16 -11 2 -119 -25 -240
-60z"/>
<path d="M6719 1478 c-7 -18 -167 -357 -356 -753 l-343 -720 81 -3 c45 -2 84
-1 86 2 10 10 554 1498 549 1503 -2 2 -9 -11 -17 -29z"/>
</g>
</svg>
