<?xml version="1.0" standalone="no"?>
<!DOCTYPE svg PUBLIC "-//W3C//DTD SVG 20010904//EN"
 "http://www.w3.org/TR/2001/REC-SVG-20010904/DTD/svg10.dtd">
<svg version="1.0" xmlns="http://www.w3.org/2000/svg"
 width="1280.000000pt" height="1172.000000pt" viewBox="0 0 1280.000000 1172.000000"
 preserveAspectRatio="xMidYMid meet">
<metadata>
Created by potrace 1.15, written by Peter Selinger 2001-2017
</metadata>
<g transform="translate(0.000000,1172.000000) scale(0.100000,-0.100000)"
fill="#2196f3" stroke="none">
<path d="M8310 11714 c-104 -4 -302 -17 -740 -49 -367 -27 -393 -29 -525 -50
-49 -8 -216 -19 -370 -25 -154 -5 -320 -14 -370 -20 -243 -29 -494 -99 -673
-189 -192 -96 -569 -322 -690 -413 -66 -49 -144 -166 -172 -257 -12 -36 -29
-75 -39 -86 -11 -11 -44 -72 -75 -136 -45 -95 -67 -129 -120 -182 -63 -64
-128 -107 -163 -107 -28 0 -112 -53 -183 -116 -195 -172 -384 -306 -550 -389
-118 -59 -180 -106 -180 -136 0 -31 23 -32 106 -4 124 41 221 98 350 202 199
161 389 300 602 441 112 74 210 145 218 157 8 12 18 56 23 96 21 184 237 457
465 588 42 24 79 42 81 39 2 -2 -1 -21 -7 -41 -6 -20 -9 -40 -6 -43 12 -11 65
26 157 110 105 97 225 175 386 252 177 85 216 94 480 115 186 15 848 18 855 4
3 -5 -46 -35 -107 -65 -120 -59 -180 -104 -151 -115 9 -4 72 12 140 34 588
190 784 233 1212 262 187 12 290 5 496 -37 378 -76 657 -205 996 -460 225
-169 301 -260 373 -451 60 -159 80 -194 129 -226 49 -33 53 -53 13 -62 -16 -3
-33 -14 -37 -23 -4 -9 -11 -235 -14 -502 -8 -549 -9 -558 -100 -925 -81 -329
-195 -647 -289 -805 -83 -140 -83 -88 0 91 138 298 229 628 285 1029 33 230
21 738 -15 715 -16 -9 -22 -74 -31 -315 -10 -289 -26 -394 -110 -725 -67 -266
-109 -386 -190 -542 -97 -185 -301 -495 -317 -480 -7 7 19 54 105 191 203 325
335 681 401 1086 36 220 51 432 32 444 -14 9 -28 -26 -48 -124 -8 -41 -19 -79
-24 -84 -11 -12 -11 -17 -13 364 -1 298 -11 399 -37 416 -16 10 -35 -13 -48
-58 -7 -24 -24 -67 -37 -96 l-25 -53 15 -98 c9 -54 16 -127 16 -162 0 -128
-31 -312 -48 -294 -4 4 -5 62 -4 129 4 127 -3 223 -19 247 -21 32 -33 -27 -64
-301 -16 -148 -26 -192 -42 -197 -16 -6 -24 22 -38 135 -7 57 -16 106 -19 110
-20 19 -29 -33 -37 -210 -12 -289 -51 -594 -105 -818 -26 -110 -38 -140 -50
-127 -10 10 -11 534 -2 568 5 18 18 29 40 36 l33 9 -2 115 c-3 231 -58 510
-148 759 -28 80 -55 159 -59 175 l-7 30 20 -20 c11 -11 62 -78 113 -149 89
-124 118 -155 118 -123 0 32 -231 382 -315 475 -23 26 -57 69 -76 96 -42 61
-111 100 -261 150 -233 77 -541 117 -584 75 -10 -11 -14 -24 -10 -37 6 -18 18
-21 104 -26 229 -14 422 -54 516 -108 32 -19 51 -44 100 -134 34 -62 81 -134
106 -160 81 -87 207 -294 224 -369 6 -27 2 -24 -46 30 -84 96 -191 205 -196
200 -2 -2 21 -47 52 -99 68 -113 185 -354 257 -526 59 -143 68 -206 34 -252
-11 -15 -26 -27 -34 -25 -8 1 -28 42 -46 97 -34 102 -52 141 -86 180 l-21 25
6 -25 c29 -117 38 -163 55 -285 11 -77 25 -206 32 -287 17 -208 2 -233 -46
-75 -27 89 -40 105 -51 63 -8 -33 -36 -57 -76 -65 -45 -9 -48 -34 -36 -282 6
-114 7 -220 4 -235 -7 -25 -8 -26 -23 -11 -12 12 -18 47 -24 128 -8 105 -18
144 -33 121 -8 -13 -23 -122 -41 -302 -9 -85 -29 -227 -45 -315 -38 -217 -42
-243 -30 -250 15 -9 35 32 90 190 58 166 98 261 106 253 8 -9 -82 -387 -116
-483 -45 -127 -89 -212 -101 -194 -5 8 -9 26 -9 40 0 38 -19 51 -50 34 -45
-26 -67 -18 -110 36 -22 27 -44 69 -50 92 -6 23 -17 58 -25 77 -24 56 -52 191
-70 328 -9 70 -21 137 -26 150 -12 31 -43 28 -77 -9 l-30 -32 -6 30 c-8 34 -1
72 21 122 20 44 31 288 15 317 -9 17 -14 13 -36 -36 -36 -81 -76 -273 -76
-368 0 -163 89 -412 320 -897 105 -220 214 -472 280 -645 35 -91 83 -213 106
-272 24 -59 44 -120 44 -136 0 -39 14 -48 83 -55 32 -3 69 -12 81 -21 27 -17
195 -342 254 -491 22 -55 56 -138 76 -185 22 -53 36 -101 36 -128 0 -33 8 -55
32 -88 29 -41 31 -47 20 -78 -21 -57 -14 -135 43 -470 67 -396 115 -919 115
-1248 0 -109 11 -168 31 -168 40 0 92 315 105 630 7 170 -4 224 -46 227 -14 0
-31 1 -38 2 -8 1 -12 10 -10 23 2 16 11 24 28 26 30 4 50 27 50 59 0 13 5 23
10 23 6 0 10 -2 10 -5 0 -39 57 -367 76 -437 54 -203 65 -252 103 -479 22
-130 50 -260 61 -289 19 -49 19 -54 5 -77 -17 -26 -135 -116 -142 -109 -3 2 6
18 18 36 19 24 21 34 12 48 -19 29 -66 18 -136 -32 -35 -25 -70 -46 -76 -46
-6 0 -14 -14 -18 -30 -6 -32 -28 -50 -62 -50 -11 0 -67 -15 -123 -34 -57 -19
-141 -40 -187 -47 -120 -17 -343 -6 -506 26 -71 14 -182 32 -245 41 -270 37
-520 120 -520 174 0 17 52 11 141 -15 111 -32 183 -48 417 -96 197 -40 272
-47 272 -28 0 18 -80 46 -237 85 -241 58 -235 63 83 64 253 0 334 7 334 29 0
4 -82 15 -182 25 -236 22 -606 64 -685 76 -71 12 -93 19 -93 30 0 16 24 24
123 36 81 11 110 20 165 50 163 91 189 104 217 104 17 0 66 18 110 40 112 56
225 82 364 85 97 3 117 6 128 21 37 51 -4 106 -92 124 -128 26 -291 -26 -372
-120 -39 -45 -79 -65 -169 -84 -87 -19 -127 -33 -239 -87 -110 -52 -180 -62
-220 -31 -24 19 -36 21 -104 15 -120 -9 -306 37 -501 125 l-65 29 75 13 c388
67 480 90 480 119 0 17 -65 32 -205 47 -249 27 -366 65 -518 167 -89 59 -150
83 -397 157 -113 34 -272 82 -355 107 -356 107 -525 190 -600 294 -38 53 -160
138 -277 194 -93 44 -112 43 -116 -6 -7 -81 105 -278 216 -380 53 -49 167
-132 195 -142 20 -7 2 -17 -53 -32 -77 -20 -427 -58 -481 -52 -45 6 -304 72
-408 104 -30 10 -99 44 -154 76 -117 70 -171 90 -214 82 -30 -5 -31 -4 -30 29
1 25 -10 48 -39 88 -22 29 -68 100 -102 158 -35 58 -117 173 -184 255 -135
167 -178 230 -178 258 0 14 5 17 23 11 62 -19 237 -126 322 -199 106 -89 165
-123 165 -95 0 15 -184 204 -358 367 -261 245 -345 296 -577 348 -175 40 -226
42 -337 15 -263 -64 -560 -203 -669 -314 -24 -24 -48 -66 -69 -121 -18 -47
-37 -85 -41 -85 -5 0 -11 12 -15 28 -14 63 -36 134 -55 179 -11 26 -25 86 -29
131 -6 55 -17 98 -32 125 -21 40 -23 56 -28 307 -4 180 -10 275 -19 295 -22
52 -73 125 -87 125 -21 0 -17 -38 7 -77 16 -26 22 -52 23 -103 2 -124 -34
-114 -61 17 -21 105 -33 124 -102 173 -33 24 -79 69 -106 106 -51 69 -89 105
-139 131 -63 33 -156 38 -156 7 0 -16 47 -51 118 -90 29 -15 67 -44 84 -63
l30 -34 -26 -20 c-16 -11 -26 -28 -26 -43 0 -33 -23 -40 -74 -20 -69 26 -134
72 -152 108 -22 42 -146 401 -185 538 -48 166 -69 161 -69 -15 0 -157 18 -226
99 -390 78 -156 141 -241 233 -310 58 -44 62 -45 133 -45 136 0 220 -69 266
-220 12 -40 19 -87 17 -116 l-3 -49 -67 2 c-75 1 -282 50 -373 87 -33 14 -98
41 -145 60 -133 56 -144 47 -31 -28 37 -25 97 -56 132 -68 l64 -23 3 -42 c4
-52 -4 -50 209 -57 171 -5 218 -16 191 -43 -50 -49 -332 -28 -548 42 -111 35
-140 40 -140 22 0 -38 167 -101 397 -148 146 -30 183 -42 183 -58 0 -17 -58
-24 -262 -30 -114 -3 -210 -10 -214 -13 -21 -22 167 -58 302 -58 65 0 76 -4
67 -26 -18 -49 -199 -91 -430 -101 -78 -3 -148 -10 -155 -15 -23 -15 19 -36
89 -44 148 -15 382 18 538 77 47 17 88 30 90 27 33 -32 -205 -156 -342 -178
-62 -10 -73 -16 -73 -36 0 -18 37 -18 136 1 99 19 154 37 280 91 103 44 149
55 142 32 -19 -56 -335 -181 -524 -207 -179 -25 -196 -61 -29 -61 182 0 558
107 615 175 7 9 22 21 32 26 37 20 18 -24 -32 -72 -110 -107 -306 -174 -598
-204 -84 -9 -162 -20 -175 -24 -21 -9 -21 -9 -2 -17 33 -15 403 -11 465 4 30
8 118 34 195 59 77 24 145 46 152 48 22 7 23 -12 2 -39 -11 -14 -39 -30 -62
-37 -59 -16 -217 -82 -217 -92 0 -10 190 6 323 29 35 6 37 5 37 -18 0 -14 -6
-30 -13 -37 -7 -6 -108 -17 -223 -26 -115 -9 -243 -22 -284 -30 -91 -18 -188
-64 -324 -155 -222 -149 -359 -286 -506 -505 -152 -227 -222 -379 -240 -518
-6 -47 -22 -126 -36 -174 -136 -469 -138 -824 -5 -1079 17 -33 38 -87 47 -120
20 -78 91 -202 175 -309 62 -78 89 -131 89 -176 0 -9 7 -33 15 -53 26 -62 4
-83 -248 -250 -224 -147 -272 -200 -265 -290 3 -34 -1 -42 -22 -53 -28 -14
-116 -18 -124 -5 -3 5 -10 37 -15 73 -9 53 -16 69 -41 90 -26 22 -28 27 -15
33 9 3 25 6 34 6 10 0 30 9 43 20 32 25 124 158 115 166 -8 8 -176 -85 -302
-167 -110 -71 -177 -101 -213 -97 -23 3 -27 8 -30 40 -9 103 125 237 377 379
63 35 132 81 155 101 39 35 40 37 16 37 -30 1 -92 -26 -169 -73 -31 -19 -86
-46 -123 -61 -43 -17 -89 -46 -128 -81 -63 -56 -94 -68 -170 -62 -44 3 -45 4
-43 36 2 56 26 72 105 72 63 0 69 2 80 25 15 33 88 89 300 229 170 113 276
195 252 196 -14 0 -117 -43 -269 -114 -132 -61 -180 -70 -210 -36 -21 23 -24
72 -6 94 7 8 43 25 79 37 57 18 256 103 399 170 66 32 69 69 5 69 -138 0 -472
-133 -569 -226 -74 -70 -49 -132 80 -200 l78 -41 -81 -32 c-44 -17 -104 -36
-132 -41 -62 -12 -87 -28 -151 -93 -60 -62 -90 -119 -82 -156 3 -15 38 -86 76
-157 39 -71 84 -155 100 -187 l30 -58 33 20 c45 28 141 51 221 54 57 2 69 -1
80 -18 14 -20 18 -24 55 -57 15 -13 18 -25 14 -48 -9 -43 11 -63 55 -55 81 15
180 84 255 177 91 112 157 127 284 65 86 -42 166 -54 247 -37 68 14 95 37 88
74 -3 14 -2 26 3 26 4 0 49 -20 99 -44 51 -25 167 -70 260 -101 93 -31 176
-60 184 -66 11 -7 -58 -8 -211 -4 -124 4 -236 4 -247 0 -28 -9 -15 -33 30 -54
20 -10 41 -30 51 -51 9 -19 21 -40 26 -46 16 -18 903 -151 1162 -174 174 -16
801 -24 820 -11 29 20 -7 36 -81 36 -38 0 -69 3 -69 7 0 3 17 12 38 19 51 18
475 20 493 2 16 -16 -18 -29 -120 -49 -41 -8 -76 -16 -78 -17 -1 -2 28 -13 66
-25 96 -31 101 -40 51 -97 -22 -25 -40 -53 -40 -61 0 -26 28 -70 65 -102 103
-91 199 -85 268 16 18 26 49 64 70 84 67 63 257 143 257 108 0 -7 -29 -43 -65
-81 -75 -80 -97 -119 -99 -172 -2 -100 120 -89 354 32 63 32 135 64 160 71 25
7 75 33 113 58 37 24 70 42 74 38 4 -3 -20 -46 -54 -94 -33 -48 -67 -101 -76
-118 -26 -51 -9 -57 164 -62 l149 -4 148 143 c163 159 267 236 363 272 35 12
120 59 189 104 69 44 152 94 186 111 64 32 90 61 144 157 73 131 124 174 235
194 135 25 307 9 485 -45 139 -42 258 -61 450 -69 546 -23 910 -59 1040 -100
73 -24 220 -35 465 -35 268 0 390 9 690 51 254 35 346 58 540 138 168 70 239
95 331 116 153 35 723 229 828 282 86 43 113 77 81 103 -23 19 -98 -3 -275
-80 -166 -73 -332 -129 -690 -235 -123 -36 -265 -82 -315 -101 -49 -20 -118
-46 -152 -59 -205 -79 -762 -129 -1175 -106 -123 6 -340 16 -483 21 -268 10
-309 14 -505 54 -63 13 -135 27 -160 30 -54 8 -87 28 -203 121 l-86 70 50 3
c64 4 140 -18 248 -72 182 -91 301 -119 506 -119 213 0 385 31 865 158 63 16
122 25 175 25 134 0 425 -55 582 -110 32 -11 68 -20 82 -20 24 0 24 0 5 22
-40 45 -294 146 -419 167 -71 11 -115 27 -115 41 0 5 17 17 37 25 20 9 64 32
97 53 119 74 244 117 429 147 217 35 406 29 609 -20 118 -29 168 -32 168 -11
0 51 -275 126 -460 126 -41 0 -111 -9 -155 -19 -44 -11 -83 -17 -88 -14 -12 7
49 68 104 104 52 33 61 35 53 14 -10 -24 28 -23 256 11 313 46 492 31 688 -56
87 -39 122 -45 122 -21 0 17 -63 58 -134 86 -244 96 -483 108 -756 39 -52 -13
-99 -24 -104 -24 -6 0 8 18 29 41 138 142 501 197 783 119 66 -18 223 -77 357
-134 63 -27 105 -33 105 -16 0 19 -85 73 -205 130 -178 85 -350 140 -442 140
-50 0 -73 8 -73 25 0 20 42 26 143 20 89 -6 126 2 114 22 -22 36 -219 18 -313
-28 -49 -23 -85 -33 -155 -39 -78 -7 -99 -14 -143 -41 -48 -31 -57 -33 -164
-37 -62 -2 -143 -1 -180 4 l-67 7 135 13 c170 16 210 26 263 67 24 18 65 41
92 52 l50 19 -40 7 c-22 4 -201 2 -398 -3 -344 -10 -487 -6 -487 12 0 18 114
29 365 35 354 9 698 35 710 55 10 16 -156 19 -474 9 -320 -10 -414 -8 -395 11
23 22 299 41 879 60 460 16 729 35 719 52 -4 6 -208 7 -573 3 -547 -7 -797 0
-838 24 -34 18 18 24 296 32 348 11 511 23 547 42 l27 14 -46 11 c-29 8 -147
12 -324 12 -247 0 -367 9 -350 26 6 6 447 48 727 69 113 8 316 18 453 22 136
3 247 9 247 13 0 4 -12 13 -27 21 -23 12 -134 14 -648 14 -695 1 -693 1 -678
16 16 16 115 27 388 44 408 25 544 42 529 67 -5 8 -96 9 -318 4 -310 -7 -524
2 -582 25 -75 28 56 42 621 65 267 10 480 14 610 9 334 -11 328 -11 332 2 8
23 -45 44 -139 54 -61 6 -208 6 -428 -1 -543 -16 -1003 -10 -1027 14 -17 16
24 31 95 34 42 2 194 12 337 22 143 11 336 24 430 30 93 6 171 13 173 15 2 2
1 8 -3 14 -16 27 -721 2 -987 -35 -40 -6 -49 -4 -54 11 -10 26 26 52 89 64 73
15 224 28 507 45 464 28 666 38 920 45 216 5 255 8 255 21 0 22 -42 28 -210
29 -227 1 -1230 -39 -1479 -59 -124 -11 -141 -7 -134 26 7 41 118 56 568 79
285 15 431 28 452 41 23 14 -25 24 -153 30 -104 5 -175 2 -314 -14 -222 -26
-477 -45 -530 -40 -56 4 -59 30 -6 52 88 34 251 61 446 71 121 7 161 17 149
37 -9 14 -393 3 -544 -16 -93 -12 -106 -11 -117 2 -17 21 -16 29 6 51 22 22
57 26 401 46 401 23 580 40 580 55 0 4 -10 10 -22 14 -39 10 -499 7 -660 -5
-84 -7 -193 -12 -243 -13 -84 -1 -90 0 -93 20 -2 11 3 25 10 31 20 16 734 76
1103 93 245 11 302 17 312 33 11 18 -1061 -11 -1277 -35 -182 -19 -201 -16
-163 31 28 34 117 44 638 75 439 27 435 26 435 51 0 20 -76 25 -246 15 -279
-17 -778 -24 -799 -13 -23 14 1 17 220 32 83 6 168 17 190 23 l40 13 -72 3
c-40 2 -73 7 -73 12 0 18 87 60 125 60 31 0 45 7 81 44 32 31 44 51 44 72 l0
29 -189 -4 c-187 -3 -387 11 -405 29 -14 14 22 18 243 29 188 9 253 20 205 35
-34 10 -148 25 -241 32 -51 4 -93 10 -93 14 0 4 55 10 123 14 221 12 365 34
395 59 25 20 -11 27 -158 27 -165 1 -328 14 -342 28 -27 27 96 44 425 58 189
8 175 15 152 -81 -8 -32 -13 -61 -11 -63 2 -2 25 26 50 62 46 63 84 151 72
163 -3 4 -73 -1 -154 -10 -245 -28 -400 -33 -446 -13 -37 15 -39 18 -23 33 10
10 38 18 74 20 148 9 300 25 434 44 l146 22 6 261 c4 143 7 307 7 363 l0 101
110 223 c61 123 110 227 110 232 0 20 -33 18 -57 -4 -67 -63 -240 -485 -250
-613 -3 -34 -11 -71 -19 -83 -21 -33 -112 -61 -239 -74 -132 -14 -165 -7 -165
35 0 26 -33 56 -61 56 -9 0 -27 9 -40 20 l-24 20 23 19 c34 30 120 59 297 103
161 39 216 61 198 79 -6 6 -76 -3 -190 -26 -195 -38 -264 -43 -283 -20 -17 20
-4 35 30 35 114 0 456 117 427 146 -4 4 -71 -9 -149 -29 -168 -42 -225 -51
-267 -42 -47 10 -37 29 28 57 56 24 60 28 63 63 4 53 29 68 183 111 144 41
223 72 244 97 12 15 11 17 -8 17 -12 0 -81 -16 -153 -35 -194 -51 -478 -72
-478 -35 0 14 12 18 106 35 180 34 394 106 394 134 0 14 11 16 -142 -18 -164
-37 -254 -46 -291 -32 -37 14 -30 35 14 39 124 10 289 61 289 90 0 13 -16 14
-118 8 -121 -7 -172 1 -172 27 0 20 61 45 140 58 123 21 108 58 -23 60 -76 1
-141 19 -145 41 -4 22 12 26 141 38 200 19 297 48 297 90 0 33 -41 24 -101
-21 -59 -44 -75 -46 -157 -15 -35 13 -63 15 -133 10 -63 -5 -89 -4 -89 4 0 19
70 59 170 97 98 38 137 58 206 111 119 90 338 79 438 -22 36 -37 73 -110 87
-173 24 -111 59 -103 59 15 0 108 -22 170 -83 229 -62 60 -141 94 -238 102
-92 8 -149 -9 -276 -79 -163 -91 -275 -129 -315 -107 -28 15 -23 56 41 415 32
181 67 385 76 454 9 69 24 143 34 165 11 24 45 64 88 100 133 115 205 231 226
364 8 57 7 81 -7 138 -15 63 -33 95 -112 203 -29 39 -29 45 1 260 21 145 14
225 -29 354 -95 285 -140 503 -186 911 -35 314 -74 474 -155 635 -18 36 -58
130 -90 210 -103 262 -179 350 -510 591 -220 160 -331 232 -455 294 -41 20
-97 53 -125 73 -66 47 -152 85 -255 112 -76 20 -112 23 -330 25 -135 1 -283 1
-330 -1z m-850 -149 c17 -20 4 -35 -31 -35 -32 0 -37 11 -13 34 19 20 28 20
44 1z m-143 -31 c11 -28 -13 -38 -46 -18 -40 24 -39 34 4 34 23 0 38 -6 42
-16z m3003 -1320 c0 -8 -3 -14 -6 -14 -12 0 -33 35 -33 55 0 19 1 19 19 -4 11
-13 20 -29 20 -37z m14 -111 c3 -27 9 -132 12 -235 5 -142 4 -188 -5 -188 -20
0 -31 47 -37 163 -7 119 3 307 16 307 4 0 10 -21 14 -47z m193 -1020 c-9 -337
-24 -384 -26 -77 -1 254 5 342 22 325 6 -6 8 -96 4 -248z m-663 60 l-18 -38
-4 28 c-2 16 5 52 15 80 l18 51 3 -41 c2 -24 -4 -57 -14 -80z m423 -130 c-12
-114 -129 -499 -224 -743 -78 -199 -171 -370 -209 -384 -34 -13 -37 11 -6 56
124 181 324 700 396 1029 15 67 29 99 44 99 3 0 2 -26 -1 -57z m108 -15 c-12
-104 -38 -215 -76 -336 -52 -163 -51 -182 12 -182 25 0 24 -3 -10 -37 -16 -17
-35 -53 -45 -85 -10 -35 -29 -71 -50 -92 -41 -44 -59 -47 -46 -8 6 15 28 108
50 207 22 99 62 245 89 325 27 80 55 171 62 203 15 71 23 74 14 5z m-600 -40
c-17 -77 -202 -526 -272 -660 -61 -116 -72 -77 -22 77 43 136 131 345 166 396
17 24 47 78 68 119 52 105 73 128 60 68z m812 -245 c-2 -21 -4 -4 -4 37 0 41
2 58 4 38 2 -21 2 -55 0 -75z m-1405 -94 c14 -61 22 -289 10 -289 -6 0 -15 23
-21 51 -17 76 -34 247 -27 265 10 25 30 11 38 -27z m1328 -260 c0 -17 -4 -28
-10 -24 -5 3 -10 17 -10 31 0 13 5 24 10 24 6 0 10 -14 10 -31z m-135 -26
c-20 -46 -35 -64 -35 -40 0 24 28 77 40 77 6 0 3 -17 -5 -37z m-1193 -175 c-9
-9 -12 -4 -11 23 0 32 1 33 11 11 8 -17 8 -26 0 -34z m188 25 c0 -32 -44 -161
-60 -177 -22 -22 -10 86 16 145 29 64 44 75 44 32z m1368 -55 c41 -43 62 -96
62 -157 0 -100 -39 -136 -52 -48 -3 26 -20 87 -37 136 -17 49 -31 92 -31 95 0
16 29 2 58 -26z m-143 6 c22 -9 45 -57 45 -97 0 -86 -56 -188 -96 -173 -12 5
-15 13 -9 34 3 15 9 55 12 88 6 73 -7 104 -43 104 -28 0 -44 28 -23 41 16 10
90 12 114 3z m-475 -26 c0 -48 -58 -133 -77 -114 -13 13 47 136 67 136 5 0 10
-10 10 -22z m228 -130 c-6 -18 -85 -60 -190 -102 -47 -19 -158 -67 -246 -106
-87 -38 -166 -70 -173 -70 -56 0 462 254 576 283 33 8 37 7 33 -5z m-658 -60
c0 -7 -20 -38 -44 -69 -24 -31 -51 -70 -60 -88 -14 -26 -49 -51 -72 -51 -15 0
2 34 42 86 26 32 57 76 70 97 24 36 64 52 64 25z m770 -10 c0 -33 -64 -70
-190 -112 -114 -37 -202 -55 -185 -38 13 14 346 172 363 172 6 0 12 -10 12
-22z m110 -141 c0 -14 -79 -94 -120 -121 -33 -22 -83 -20 -111 4 -23 18 -23
19 -4 20 43 1 98 23 133 54 60 53 102 71 102 43z m-532 -65 c3 -18 -4 -26 -32
-37 -19 -8 -47 -15 -62 -15 -25 0 -26 1 -12 23 16 24 77 59 93 54 6 -2 11 -13
13 -25z m-1518 -47 c20 -24 -1 -38 -28 -19 -12 8 -22 19 -22 25 0 15 36 10 50
-6z m1430 -50 c14 -17 5 -35 -18 -35 -20 0 -74 -35 -151 -97 -35 -29 -57 -41
-64 -34 -16 16 0 39 37 55 23 10 42 28 55 55 12 22 31 47 43 55 28 20 82 21
98 1z m380 -49 c0 -33 -106 -102 -260 -170 -30 -13 -92 -56 -138 -95 -217
-185 -371 -270 -525 -287 -55 -6 -61 -5 -49 8 11 14 178 82 267 108 25 8 56
30 85 60 26 27 59 52 75 55 70 17 99 59 48 71 -52 11 -63 15 -63 24 0 13 59
30 104 30 68 0 86 9 86 40 0 37 36 65 101 79 27 6 73 23 101 37 103 52 168 67
168 40z m-986 -55 c3 -5 -3 -20 -13 -32 -26 -32 -48 -14 -25 19 16 23 29 28
38 13z m1082 -72 c10 -16 -119 -137 -172 -160 l-45 -20 6 -43 c6 -39 5 -44
-17 -49 -12 -4 -40 -7 -61 -7 -45 0 -111 -26 -102 -40 3 -5 21 -10 38 -11 32
0 32 0 -13 -20 -57 -26 -177 -51 -202 -43 -37 11 -18 29 74 68 20 8 54 31 75
49 21 19 56 44 78 55 23 11 79 55 125 97 80 73 171 135 197 135 6 0 15 -5 19
-11z m-756 -49 c0 -16 -45 -41 -86 -47 -38 -5 -38 -5 -21 13 28 30 107 55 107
34z m-16 -139 c10 -16 -157 -61 -224 -61 -60 0 -25 32 60 56 54 15 156 18 164
5z m732 -67 c-4 -15 -20 -39 -36 -54 -33 -31 -137 -77 -148 -65 -4 4 15 26 43
49 27 22 67 58 90 78 43 40 62 37 51 -8z m-576 -202 c0 -14 -43 -50 -73 -61
-58 -22 -127 -7 -99 21 28 28 172 61 172 40z m476 -3 c24 -6 44 -15 44 -20 0
-11 -22 -15 -160 -28 -63 -6 -144 -20 -178 -31 -123 -39 -162 -18 -61 32 100
49 260 71 355 47z m-8 -110 c9 -46 -138 -154 -320 -236 -119 -54 -138 -60
-138 -44 0 28 147 120 216 135 17 4 44 20 59 36 25 26 26 30 11 36 -9 4 -126
1 -260 -6 -133 -7 -249 -10 -257 -8 -22 9 54 38 140 54 42 8 157 19 256 24 99
5 196 14 215 19 48 13 74 9 78 -10z m-1238 -114 c14 -17 5 -35 -19 -35 -22 0
-45 25 -36 40 9 15 41 12 55 -5z m1230 -118 c0 -36 -95 -75 -205 -84 -67 -5
-69 -4 -48 11 29 22 83 44 158 67 74 22 95 23 95 6z m-537 -11 c3 -8 0 -20 -8
-26 -17 -14 -55 3 -55 25 0 20 56 20 63 1z m126 -130 c10 -12 8 -17 -8 -25
-27 -15 -54 -14 -77 4 -16 13 -17 16 -4 25 22 14 76 12 89 -4z m346 -55 c9
-16 -45 -50 -110 -70 -85 -26 -224 -46 -236 -34 -15 15 7 27 96 56 162 53 238
67 250 48z m-980 -101 c12 -4 27 -15 34 -24 12 -14 10 -16 -10 -16 -28 0 -89
35 -89 51 0 10 15 7 65 -11z m508 3 c-13 -2 -33 -2 -45 0 -13 2 -3 4 22 4 25
0 35 -2 23 -4z m487 -42 c0 -17 -10 -42 -23 -56 -19 -22 -37 -29 -113 -40
-144 -21 -279 -29 -300 -17 -17 10 -16 12 17 26 20 8 88 25 150 36 142 25 213
45 229 65 21 25 40 18 40 -14z m-745 -34 c23 -18 11 -37 -23 -37 -36 0 -56 14
-49 34 8 20 46 21 72 3z m170 -47 c9 -15 -14 -40 -36 -40 -24 0 -33 18 -19 35
14 17 46 20 55 5z m-50 -125 c43 -11 124 -15 293 -15 127 0 232 -4 232 -9 0
-5 -24 -19 -52 -32 -43 -18 -76 -23 -175 -27 -175 -6 -320 24 -369 79 -21 23
-12 24 71 4z m-88 -100 c111 -41 214 -61 358 -70 128 -8 256 -24 274 -35 21
-11 -10 -25 -83 -39 -118 -22 -246 -7 -407 48 -97 33 -249 107 -249 121 0 14
-3 14 107 -25z m68 -166 c128 -39 214 -51 382 -50 l163 1 6 -24 c9 -39 -22
-85 -74 -109 -41 -19 -64 -22 -172 -21 -127 1 -263 27 -261 49 1 6 74 10 199
10 196 0 247 6 239 28 -2 8 -49 15 -132 19 -71 4 -162 14 -202 23 -75 15 -218
69 -229 86 -8 13 7 11 81 -12z m915 -249 c0 -16 -46 -30 -96 -30 -52 0 -58 15
-11 29 44 13 107 13 107 1z m-732 -26 c191 -35 232 -45 232 -60 0 -20 -143
-19 -229 1 -65 16 -131 49 -131 66 0 13 29 11 128 -7z m82 -152 c26 -21 20
-42 -11 -42 -20 0 -119 46 -119 55 0 3 24 5 54 5 37 0 61 -6 76 -18z m-5795
-172 c60 -31 29 -35 -218 -31 -221 3 -251 2 -347 -18 -108 -23 -365 -106 -479
-155 -42 -19 -67 -24 -73 -18 -22 22 351 216 442 231 30 5 188 9 350 8 239 -2
301 -5 325 -17z m6250 -60 c-3 -5 -15 -10 -25 -10 -10 0 -22 5 -25 10 -4 6 7
10 25 10 18 0 29 -4 25 -10z m-6178 -76 c26 -15 42 -29 35 -32 -20 -6 -118 27
-143 49 l-24 20 42 -4 c24 -3 64 -18 90 -33z m-354 -67 c117 -31 278 -106 365
-171 60 -45 84 -84 43 -71 -47 15 -29 -43 58 -188 58 -97 91 -162 91 -178 0
-6 -22 9 -49 34 -50 46 -88 64 -116 53 -22 -8 -19 -18 29 -83 67 -92 70 -99
44 -117 l-22 -16 18 -47 c60 -157 126 -346 137 -396 15 -71 7 -85 -42 -64 -77
32 -174 129 -274 271 -84 120 -212 201 -539 341 -220 93 -287 112 -441 125
-329 28 -375 35 -375 51 0 4 10 14 23 20 45 24 118 93 198 186 106 123 219
198 391 258 68 24 82 25 218 22 114 -4 166 -10 243 -30z m6637 -11 c0 -7 -7
-20 -16 -27 -14 -11 -18 -10 -30 5 -7 11 -11 23 -8 27 9 15 54 10 54 -5z m528
-43 c-7 -57 -73 -78 -279 -89 -167 -9 -213 3 -156 41 24 15 330 72 400 74 36
1 38 -1 35 -26z m-544 -63 c15 -15 -4 -30 -38 -30 -42 0 -65 23 -39 39 18 11
61 6 77 -9z m-294 0 c0 -5 -11 -10 -25 -10 -14 0 -25 5 -25 10 0 6 11 10 25
10 14 0 25 -4 25 -10z m-344 -86 c17 -42 17 -44 -1 -44 -16 0 -35 38 -35 71 0
28 19 14 36 -27z m285 5 c26 -14 15 -29 -22 -29 -31 0 -36 9 -17 28 15 15 15
15 39 1z m877 5 c12 -4 22 -10 22 -15 0 -8 -60 -27 -132 -43 -62 -14 -13 -47
71 -50 72 -1 76 -23 9 -48 -59 -22 -281 -42 -373 -33 -143 13 -116 38 53 49
105 6 162 24 162 50 0 18 -40 28 -114 26 -115 -3 -136 -1 -136 14 0 8 7 16 15
20 13 5 128 21 215 29 63 7 185 7 208 1z m-720 -31 c-2 -10 -16 -22 -31 -27
-22 -8 -31 -6 -45 7 -15 16 -15 19 -2 27 8 5 30 10 48 10 26 0 33 -4 30 -17z
m148 2 c16 -13 17 -16 4 -25 -33 -22 -88 -5 -77 24 8 20 47 21 73 1z m-6039
-107 c55 -58 123 -165 123 -196 0 -21 -2 -23 -16 -11 -8 7 -24 29 -34 49 -10
19 -43 68 -74 108 -54 69 -65 92 -48 92 4 0 26 -19 49 -42z m5981 -30 c4 -22
-42 -35 -63 -18 -12 10 -13 16 -3 27 15 19 62 13 66 -9z m-63 -121 c23 -17 11
-25 -48 -33 -50 -7 -124 1 -147 16 -13 9 -13 11 0 20 23 15 173 12 195 -3z
m-7058 -118 c197 -27 458 -153 713 -345 137 -103 225 -194 260 -268 16 -33 59
-95 96 -136 178 -200 246 -320 275 -486 74 -431 36 -850 -122 -1324 -47 -143
-71 -195 -94 -204 -27 -10 -125 -7 -125 4 0 16 37 44 73 56 30 10 32 14 38 70
4 32 16 86 28 118 38 107 22 116 -40 24 -24 -35 -62 -81 -85 -103 -29 -27 -67
-85 -115 -175 -117 -220 -175 -299 -305 -412 -137 -119 -362 -251 -516 -302
-271 -89 -551 -108 -776 -52 -134 34 -300 111 -281 131 11 10 119 24 279 35
249 17 307 34 377 114 48 54 171 298 214 426 45 131 51 290 20 506 -39 268
-54 312 -172 495 -37 58 -82 133 -99 167 -17 33 -45 73 -62 87 -96 81 -351
145 -580 145 -94 0 -120 3 -133 16 -15 15 -15 18 1 35 9 11 23 19 31 19 33 0
245 250 259 307 10 38 -9 50 -50 30 -23 -10 -52 -41 -84 -89 -27 -41 -60 -79
-73 -85 -13 -6 -54 -37 -90 -69 -91 -81 -306 -184 -383 -184 -37 0 -56 -10
-56 -31 0 -24 -41 -35 -71 -19 -22 12 -22 13 -16 194 9 243 18 292 73 403 25
51 44 98 41 105 -3 8 -34 -17 -81 -65 -131 -136 -191 -295 -139 -373 12 -19
16 -47 15 -112 -1 -113 -23 -216 -78 -363 -108 -290 -195 -607 -195 -711 0
-110 30 -194 94 -262 57 -60 60 -55 52 127 -10 232 18 392 125 727 63 195 117
270 165 230 25 -21 17 -58 -24 -118 -120 -177 -195 -412 -208 -654 -8 -154 7
-248 57 -358 22 -47 44 -112 51 -144 11 -57 15 -63 148 -200 75 -77 168 -169
206 -204 39 -35 70 -71 70 -80 0 -26 -70 -18 -119 15 -58 38 -291 268 -403
398 -162 188 -313 438 -313 519 0 21 -10 84 -22 139 -18 88 -22 136 -22 337
-1 222 1 250 37 490 56 382 77 458 191 676 148 282 340 527 434 553 19 6 75
36 125 68 173 109 417 193 417 144 0 -6 -37 -38 -82 -73 -120 -91 -268 -238
-268 -265 0 -13 5 -23 11 -23 7 0 53 31 103 68 113 85 200 138 391 240 l150
81 292 0 c160 1 327 -4 370 -10z m6683 -49 c0 -14 -5 -32 -10 -40 -7 -11 -10
1 -10 40 0 39 3 51 10 40 5 -8 10 -26 10 -40z m335 40 c9 -15 -13 -40 -35 -40
-22 0 -44 25 -35 40 3 5 19 10 35 10 16 0 32 -5 35 -10z m-4319 -58 c70 -51
143 -150 127 -174 -12 -21 -134 78 -174 141 -43 67 -21 82 47 33z m-1109 -351
c45 -32 83 -81 83 -104 0 -21 -39 -47 -70 -47 -34 0 -70 26 -70 51 0 25 -18
61 -36 72 -15 8 -19 39 -7 50 15 16 63 5 100 -22z m5802 20 c20 -13 -10 -27
-84 -40 -171 -29 -300 -22 -264 15 8 8 35 18 60 23 59 12 270 13 288 2z
m-5845 -355 c9 -19 16 -44 16 -57 0 -21 -1 -21 -19 -5 -19 17 -43 90 -33 100
8 9 19 -2 36 -38z m1241 -467 c-62 -29 -130 -24 -104 8 8 9 34 13 78 12 l66
-1 -40 -19z m-436 -58 c23 -15 5 -41 -28 -41 -31 0 -46 21 -28 39 13 13 37 14
56 2z m2265 -75 c128 -53 236 -114 308 -173 175 -145 560 -349 806 -427 45
-14 101 -35 124 -47 65 -33 310 -45 598 -29 124 7 259 15 301 17 66 4 77 2 83
-13 5 -14 -10 -34 -60 -81 -90 -85 -123 -92 -124 -25 0 36 -40 28 -162 -35
l-112 -57 -211 -9 c-265 -11 -290 -11 -316 3 -37 20 -7 32 118 46 295 35 292
55 -10 66 -116 5 -256 15 -309 23 -191 29 -688 213 -688 255 0 23 26 18 107
-18 145 -65 557 -188 726 -217 41 -7 77 1 77 16 0 13 -38 27 -171 60 -222 55
-559 184 -768 295 -57 30 -126 60 -153 65 -34 8 -64 23 -91 48 -50 44 -166
188 -196 241 -22 39 -22 40 -3 40 11 0 67 -20 126 -44z m-3031 -14 c21 -23 13
-32 -28 -32 -38 0 -61 20 -43 38 18 18 53 14 71 -6z m2557 -7 c48 -25 62 -50
71 -132 12 -117 52 -215 129 -312 46 -58 158 -137 173 -122 11 11 -7 38 -100
154 -103 128 -86 126 83 -9 130 -104 217 -162 316 -209 80 -39 103 -43 112
-20 7 19 -27 55 -53 55 -25 0 -209 124 -303 204 -102 87 -117 114 -125 220 -3
49 -2 86 3 85 5 0 21 -26 36 -57 39 -83 87 -134 207 -219 126 -89 348 -228
405 -254 23 -10 57 -37 77 -60 l36 -43 105 -12 c77 -10 140 -25 234 -59 157
-57 274 -110 274 -124 0 -23 -61 -21 -386 14 -376 40 -491 56 -834 114 -233
40 -400 60 -400 48 0 -33 400 -127 750 -176 254 -36 427 -51 735 -62 165 -6
306 -15 314 -19 10 -5 -6 -12 -45 -20 -43 -9 -129 -11 -314 -7 -413 10 -701
42 -1105 122 -323 64 -365 71 -365 57 0 -60 434 -161 930 -217 191 -21 434
-35 650 -36 102 -1 199 -5 215 -9 l30 -7 -25 -10 c-64 -27 -234 -70 -400 -103
-341 -67 -570 -83 -840 -56 -222 21 -302 24 -307 9 -10 -29 181 -75 392 -93
215 -19 298 -29 308 -39 18 -18 -44 -25 -213 -25 -201 0 -261 9 -555 80 -206
50 -375 77 -375 61 0 -14 51 -31 298 -101 141 -41 271 -79 287 -86 28 -11 29
-12 11 -25 -48 -36 -228 -31 -372 10 -142 41 -284 115 -284 147 0 35 -160 180
-354 322 -149 109 -264 177 -347 206 -73 26 -94 42 -86 64 4 9 46 46 94 83
113 88 225 186 398 348 351 329 417 370 515 320z m-437 -76 c7 -11 2 -26 -18
-58 -49 -73 -55 -74 -286 -54 -127 11 -193 20 -178 24 32 11 259 39 317 40 26
1 58 4 72 8 20 6 12 11 -53 30 -42 12 -77 25 -77 27 0 3 48 3 106 2 84 -2 109
-6 117 -19z m-1556 -19 c-46 -14 -267 -30 -408 -30 -181 0 -169 20 21 33 104
8 414 5 387 -3z m891 -77 c-10 -2 -28 -2 -40 0 -13 2 -5 4 17 4 22 1 32 -1 23
-4z m-1005 -44 c-15 -15 -277 -24 -378 -13 -77 8 -78 8 -35 15 83 11 425 10
413 -2z m-2904 -31 c38 -121 101 -466 100 -547 l0 -56 -20 55 c-32 89 -109
489 -109 564 0 28 18 17 29 -16z m165 -86 c38 -120 68 -278 73 -384 6 -112 -7
-130 -32 -46 -25 84 -76 356 -82 442 -8 100 7 96 41 -12z m3446 54 c-25 -24
-73 -25 -64 -1 4 9 19 15 42 15 32 0 34 -2 22 -14z m780 4 c28 -18 -7 -35 -69
-35 -57 1 -97 17 -85 36 7 12 135 11 154 -1z m-4636 -120 c31 -190 66 -422 66
-441 0 -10 -6 -19 -14 -19 -26 0 -68 243 -82 465 -8 135 7 133 30 -5z m8134
98 c30 -30 0 -97 -55 -121 -60 -26 -196 -57 -250 -57 -27 0 -58 6 -68 14 -17
12 -15 14 21 20 50 10 197 78 243 114 56 43 87 52 109 30z m-7999 -125 c20
-95 61 -353 61 -380 0 -7 -4 -13 -9 -13 -23 0 -77 264 -86 423 -8 125 5 114
34 -30z m-279 76 c0 -4 14 -88 30 -186 17 -98 30 -195 30 -216 0 -34 -2 -37
-19 -27 -13 7 -24 32 -35 77 -21 96 -50 357 -42 379 7 18 8 18 22 0 8 -11 14
-23 14 -27z m3075 22 c15 -26 -123 -50 -210 -37 -49 8 -56 25 -14 37 37 11
217 10 224 0z m1432 -20 c212 -16 187 -37 -55 -46 -148 -6 -355 4 -369 19 -13
13 8 18 114 25 153 11 174 11 310 2z m-4627 -119 c6 -32 10 -69 8 -83 -4 -21
-6 -18 -16 17 -7 23 -15 63 -19 89 -9 68 11 51 27 -23z m7220 6 c101 -29 112
-42 30 -35 -79 6 -138 23 -171 49 l-24 20 45 -7 c25 -3 79 -16 120 -27z
m-7376 -10 c8 -18 17 -71 21 -118 8 -105 40 -306 59 -379 19 -70 5 -105 -19
-48 -42 101 -108 577 -79 577 3 0 11 -15 18 -32z m3161 12 c4 -6 -7 -10 -25
-10 -18 0 -29 4 -25 10 3 6 15 10 25 10 10 0 22 -4 25 -10z m1651 -13 c17 -16
-15 -21 -194 -28 -103 -4 -213 -11 -244 -15 -54 -6 -58 -5 -58 14 0 24 22 30
135 36 115 5 353 1 361 -7z m-3797 -54 c16 -66 22 -131 12 -137 -12 -8 -30 47
-38 117 -7 66 10 80 26 20z m7486 27 c21 -33 -89 -100 -117 -72 -16 16 7 40
57 63 47 22 52 22 60 9z m-4825 -13 c0 -19 -21 -37 -42 -37 -18 0 -25 29 -11
43 12 12 53 7 53 -6z m1000 -77 c29 -18 -6 -32 -93 -37 -138 -9 -225 13 -144
36 42 12 218 13 237 1z m-710 -31 c0 -15 -49 -42 -65 -35 -24 9 -17 34 13 44
28 10 52 6 52 -9z m240 -13 c0 -18 -27 -28 -53 -20 -20 6 -20 7 -2 20 24 18
55 18 55 0z m-737 -3 c9 -9 -22 -43 -40 -43 -19 0 -16 27 5 39 20 12 27 13 35
4z m257 -3 c11 -7 6 -10 -20 -10 -26 0 -31 3 -20 10 8 5 17 10 20 10 3 0 12
-5 20 -10z m758 -92 c30 -30 -7 -65 -52 -48 -25 9 -35 38 -19 53 11 11 58 8
71 -5z m-3154 -79 c12 -39 15 -75 11 -98 l-7 -36 -14 27 c-17 33 -32 184 -17
175 6 -4 18 -34 27 -68z m2686 62 c0 -6 -10 -17 -22 -25 -27 -19 -48 -5 -28
19 14 16 50 21 50 6z m270 -1 c-8 -5 -24 -10 -35 -10 -11 0 -27 5 -35 10 -11
7 -1 10 35 10 36 0 46 -3 35 -10z m-3064 -110 c7 -36 26 -101 42 -145 35 -96
47 -145 34 -145 -23 0 -139 317 -127 347 2 8 13 13 22 11 12 -2 20 -21 29 -68z
m-1271 -249 c6 -35 5 -43 -6 -39 -32 10 -43 61 -46 203 l-2 140 23 -130 c13
-71 27 -150 31 -174z m4378 227 c-17 -8 -29 -8 -45 0 -20 9 -18 11 22 11 40 0
42 -2 23 -11z m3333 -33 c66 -20 82 -31 68 -45 -16 -16 -119 -2 -146 20 -23
18 -17 40 11 40 9 0 40 -7 67 -15z m-6555 -51 c59 -86 179 -366 179 -418 0
-24 -57 -83 -69 -71 -16 16 -161 492 -161 529 0 18 23 0 51 -40z m3595 25 c92
-28 243 -106 343 -177 249 -179 798 -684 789 -729 -4 -25 -67 -29 -110 -7 -18
9 -57 38 -85 65 -29 26 -87 68 -129 94 -42 25 -124 81 -183 124 -293 216 -572
351 -806 391 -65 10 -123 24 -130 30 -7 6 -16 26 -19 45 -13 66 39 144 115
174 42 17 144 12 215 -10z m-3639 -324 c45 -154 83 -293 83 -308 0 -38 -28
-47 -51 -18 -23 28 -50 114 -119 379 -29 111 -50 208 -46 217 3 10 15 15 28
13 20 -3 31 -31 105 -283z m3139 203 c10 -16 -25 -38 -63 -38 -37 0 -56 25
-32 41 20 13 87 11 95 -3z m4624 2 c26 -16 3 -22 -127 -31 -70 -4 -163 -10
-205 -14 -132 -10 -86 25 57 44 96 12 257 13 275 1z m-8130 -30 c0 -10 -4 -22
-10 -25 -6 -4 -10 7 -10 25 0 18 4 29 10 25 6 -3 10 -15 10 -25z m7615 -20 c4
-6 -15 -10 -50 -10 -35 0 -54 4 -50 10 3 6 26 10 50 10 24 0 47 -4 50 -10z
m-315 -49 c0 -10 -102 -55 -148 -65 -44 -10 -44 17 0 40 60 31 148 46 148 25z
m668 -108 c20 -5 10 -15 -82 -83 -249 -185 -294 -200 -529 -180 -193 17 -260
38 -180 59 59 15 106 20 283 31 183 12 240 19 240 30 0 18 -130 50 -205 50
-53 0 -75 8 -75 26 0 19 46 40 117 52 35 6 71 16 80 22 18 11 304 6 351 -7z
m-8085 1 c9 -10 -22 -64 -37 -64 -21 0 -26 11 -14 34 16 31 37 43 51 30z
m3842 -25 c-88 -33 -169 -47 -179 -31 -11 19 6 42 38 51 17 5 74 9 126 10 l95
0 -80 -30z m-4277 -45 c4 -61 -17 -48 -25 16 -5 34 -3 42 8 38 9 -3 15 -23 17
-54z m4575 30 c40 -21 77 -54 77 -70 0 -15 -274 -104 -319 -104 -22 0 -39 10
-63 36 -18 20 -33 41 -33 47 0 5 37 22 83 37 55 18 92 36 109 55 23 24 31 27
70 21 24 -3 58 -13 76 -22z m2879 -4 c-43 -35 -132 -63 -209 -64 -125 -2 -92
24 82 64 44 10 96 19 115 19 l35 0 -23 -19z m-6802 -29 c0 -37 -15 -48 -29
-22 -17 31 -13 51 9 51 15 0 20 -7 20 -29z m3355 -70 c22 -10 90 -58 150 -106
104 -83 265 -194 435 -298 99 -60 117 -80 101 -110 -7 -12 -37 -42 -67 -65
-29 -24 -111 -99 -181 -165 -141 -135 -209 -190 -358 -292 -146 -100 -202
-144 -306 -241 -163 -150 -339 -284 -373 -284 -27 0 -19 47 11 67 55 38 87 81
138 188 55 116 90 167 193 284 64 74 71 88 50 109 -35 35 -86 10 -297 -148
-90 -66 -184 -133 -210 -147 -25 -15 -84 -66 -131 -113 -88 -90 -280 -228
-299 -216 -20 13 -12 34 34 87 25 29 45 60 45 69 0 66 367 443 493 506 55 28
90 60 82 74 -11 17 -110 11 -181 -11 -38 -11 -107 -42 -154 -69 -47 -26 -146
-80 -220 -120 -184 -98 -320 -190 -412 -278 -42 -41 -82 -71 -88 -67 -21 13
-9 70 33 147 54 103 214 316 271 363 25 20 95 58 156 85 210 93 322 162 306
188 -12 20 -81 14 -111 -9 -15 -12 -47 -26 -72 -30 -25 -5 -111 -40 -192 -78
-80 -38 -162 -72 -181 -76 -19 -4 -98 -35 -175 -70 -207 -92 -241 -101 -277
-68 -31 28 -22 60 31 113 101 101 386 262 576 325 129 43 118 38 450 220 288
158 394 204 535 234 119 25 145 25 195 2z m3015 10 c0 -27 -93 -51 -126 -33
-17 10 -16 12 16 26 38 17 110 21 110 7z m-6252 -33 c14 -14 16 -48 3 -48 -11
0 -41 39 -41 52 0 12 25 9 38 -4z m4134 -60 l83 -32 -75 -24 c-285 -90 -365
-105 -419 -78 -90 47 -51 95 108 132 41 9 88 23 105 30 42 19 98 11 198 -28z
m-4579 -30 c59 -122 40 -167 -20 -49 -34 66 -43 116 -20 109 6 -2 24 -29 40
-60z m-243 -17 c0 -27 -19 -36 -37 -18 -18 18 -9 37 18 37 12 0 19 -7 19 -19z
m5534 -22 c63 -29 -4 -41 -74 -13 -22 9 -40 21 -40 26 0 13 76 4 114 -13z
m2020 -13 c90 -25 114 -36 80 -36 -45 0 -564 -60 -609 -70 -27 -6 -68 -20 -90
-30 -45 -22 -229 -46 -269 -36 -65 16 -2 55 109 68 47 5 118 18 158 29 390
110 462 118 621 75z m-4454 -10 c0 -30 -232 -154 -364 -195 -85 -26 -118 -27
-141 -1 -27 29 -13 48 42 55 75 9 149 33 258 82 150 69 205 85 205 59z m-876
-58 c-27 -54 -115 -156 -231 -269 -136 -133 -201 -181 -283 -212 -36 -13 -88
-36 -115 -49 -73 -37 -166 -65 -285 -88 -58 -11 -117 -23 -132 -26 -47 -11
-32 13 25 40 54 25 123 45 229 66 78 15 289 122 428 217 95 65 129 96 202 183
82 99 168 184 176 176 2 -3 -4 -19 -14 -38z m2812 1 c29 -11 63 -28 75 -38 23
-18 23 -18 2 -29 -21 -12 -371 -62 -429 -62 -18 0 -36 4 -39 10 -10 15 42 57
93 76 26 9 76 30 112 45 72 31 99 30 186 -2z m-2697 -51 c-55 -109 -130 -208
-156 -208 -24 0 -13 27 45 117 75 113 126 172 130 150 2 -8 -7 -35 -19 -59z
m5436 47 c0 -24 -38 -33 -61 -14 -21 17 2 41 35 37 18 -2 26 -9 26 -23z
m-1746 -69 c33 -18 94 -84 86 -95 -15 -26 -395 -18 -445 9 -31 17 -17 26 81
54 167 48 232 56 278 32z m444 -12 c109 -32 51 -52 -153 -53 -100 -1 -132 3
-159 17 -43 21 -48 35 -19 50 34 18 258 8 331 -14z m-6205 -56 c33 -49 48 -88
33 -88 -18 0 -81 83 -81 107 0 34 16 28 48 -19z m5058 -14 c60 -28 94 -61 76
-73 -17 -10 -390 -32 -427 -24 -33 6 -55 20 -55 34 0 14 43 28 146 49 51 10
105 25 120 34 35 19 70 14 140 -20z m2156 -6 c-15 -15 -142 -55 -219 -68 -64
-12 -75 -11 -97 4 -32 20 -33 34 -3 40 19 4 207 30 277 39 33 4 54 -3 42 -15z
m-4971 -19 c26 -14 15 -29 -22 -29 -39 0 -40 29 -1 39 2 1 12 -4 23 -10z
m-2973 -56 c48 -64 51 -77 19 -97 -27 -18 -197 -65 -214 -59 -32 11 -11 55 63
133 42 44 79 80 83 80 3 0 25 -26 49 -57z m963 7 c23 -13 25 -48 4 -57 -20 -7
-55 24 -55 49 0 20 21 23 51 8z m6339 -13 c36 -9 102 -18 148 -22 45 -4 85
-11 88 -16 20 -33 -223 -69 -345 -52 -88 13 -247 51 -275 65 -77 41 228 60
384 25z m-468 -81 c75 -25 147 -46 160 -46 12 0 30 -5 38 -10 12 -7 12 -11 2
-22 -25 -25 -202 -14 -337 21 -125 33 -225 73 -225 90 0 18 24 21 125 17 86
-4 120 -11 237 -50z m-792 -31 c104 -28 162 -53 168 -72 6 -20 -47 -16 -196
12 -174 34 -262 61 -262 82 0 14 12 15 98 10 55 -3 138 -17 192 -32z m-5578
-84 c177 -69 263 -101 444 -167 22 -8 49 -21 60 -30 17 -14 14 -15 -47 -11
-105 7 -603 211 -655 268 -9 10 -14 19 -11 19 4 0 98 -35 209 -79z m1961 -187
c25 -26 -95 -91 -185 -101 l-53 -5 20 21 c47 48 196 107 218 85z m-923 -44 c0
-5 -13 -10 -30 -10 -16 0 -30 5 -30 10 0 6 14 10 30 10 17 0 30 -4 30 -10z
m280 -48 c0 -15 -72 -44 -83 -33 -20 20 1 41 43 41 22 0 40 -4 40 -8z m738
-15 c4 -20 -25 -34 -40 -19 -15 15 -1 44 19 40 10 -2 19 -11 21 -21z m304 -95
c30 -30 -60 -46 -98 -17 -16 13 -17 16 -4 25 17 12 88 6 102 -8z m-1003 -42
c103 -9 121 -14 108 -27 -23 -22 -472 -21 -494 1 -29 29 192 43 386 26z m997
-292 c9 -14 -23 -38 -53 -38 -27 0 -42 28 -22 41 20 13 67 11 75 -3z"/>
<path d="M2735 4242 c-133 -51 -195 -72 -247 -87 -32 -8 -58 -20 -58 -25 0
-18 83 -31 253 -40 95 -4 207 -16 249 -24 141 -30 484 -154 633 -229 128 -64
301 -209 331 -277 18 -41 22 -44 89 -55 22 -4 78 -20 124 -36 46 -16 93 -29
103 -29 18 0 18 2 -2 40 -22 42 -62 76 -80 65 -5 -3 -10 2 -10 13 0 33 -75 92
-409 316 -227 152 -484 288 -656 345 -128 43 -245 51 -320 23z m220 -65 c20
-15 13 -37 -11 -37 -21 0 -74 29 -74 40 0 15 63 12 85 -3z"/>
<path d="M1683 3878 c-65 -63 -185 -175 -268 -248 -142 -126 -205 -193 -192
-206 9 -10 46 15 217 145 204 156 339 287 365 354 13 36 15 51 7 59 -9 9 -42
-18 -129 -104z"/>
<path d="M2740 3610 c-152 -18 -397 -116 -366 -147 3 -3 117 9 253 27 326 44
383 44 546 1 97 -26 130 -32 139 -23 18 18 -19 62 -73 89 -94 47 -332 72 -499
53z"/>
<path d="M3966 3398 c3 -13 35 -84 70 -158 80 -172 113 -285 121 -415 13 -235
-64 -467 -275 -827 -49 -84 -118 -204 -153 -267 -115 -208 -303 -434 -443
-532 -121 -85 -129 -59 -21 66 138 158 189 304 205 580 9 163 15 195 45 254
21 39 24 230 5 346 -16 102 -43 222 -47 209 -2 -6 0 -111 5 -233 5 -121 6
-236 3 -254 l-7 -32 -12 35 c-6 19 -20 76 -32 125 -22 98 -38 145 -50 145 -11
0 -20 -93 -20 -225 -1 -329 -62 -600 -194 -870 -81 -165 -137 -242 -202 -277
-56 -30 -164 -52 -344 -68 -153 -14 -208 -27 -191 -43 20 -20 365 -15 480 7
310 57 499 174 714 441 110 136 231 323 262 405 14 37 42 94 62 126 47 78 55
93 98 199 21 50 66 151 101 225 54 116 66 152 84 255 31 177 60 194 60 35 0
-151 -30 -353 -80 -530 -38 -138 -45 -180 -31 -180 16 0 49 76 115 270 100
291 115 391 81 566 -32 169 -80 262 -242 469 -115 147 -185 211 -167 153z"/>
<path d="M3330 3385 c0 -24 47 -112 101 -191 56 -80 99 -126 99 -103 0 18 -87
180 -135 253 -36 54 -65 72 -65 41z"/>
<path d="M2960 3157 c-42 -14 -52 -44 -18 -51 13 -3 68 -10 122 -15 132 -13
158 -36 30 -27 -97 7 -124 2 -124 -21 0 -22 59 -41 209 -67 163 -28 190 -39
213 -86 20 -39 51 -47 56 -14 3 20 -37 79 -91 134 -13 14 -64 46 -113 72 -143
74 -225 96 -284 75z"/>
<path d="M3560 3049 c-3 -60 155 -363 235 -449 24 -26 60 -130 46 -130 -5 0
-31 33 -59 73 -60 85 -115 144 -120 127 -2 -6 11 -41 29 -77 33 -65 33 -66 39
-248 6 -195 13 -225 51 -204 10 5 19 17 19 27 0 9 14 37 30 61 40 58 62 137
62 219 1 77 -23 138 -118 299 -84 144 -213 325 -214 302z"/>
<path d="M1341 2956 c-17 -20 -10 -60 11 -64 24 -5 36 44 16 64 -13 13 -16 13
-27 0z"/>
<path d="M6055 11370 c-206 -54 -430 -175 -501 -272 -14 -18 -20 -34 -15 -36
6 -2 75 30 153 72 79 41 184 90 234 110 92 35 271 120 289 137 16 15 -85 9
-160 -11z"/>
<path d="M5414 10985 c-3 -8 -3 -19 1 -25 9 -14 35 6 35 26 0 19 -29 18 -36
-1z"/>
<path d="M5947 10042 c-46 -44 -122 -108 -168 -142 l-84 -62 63 7 c34 4 62 4
62 1 0 -3 -44 -28 -97 -56 -120 -62 -158 -92 -149 -115 9 -23 45 -15 149 31
186 84 250 138 261 220 4 35 17 62 42 94 35 44 43 89 17 97 -6 2 -49 -32 -96
-75z"/>
<path d="M8891 9751 c-19 -12 -9 -97 24 -198 19 -59 28 -114 35 -223 9 -153
13 -174 38 -202 29 -34 102 -14 102 27 0 39 -24 119 -46 150 -28 42 -29 59 -8
131 15 53 15 55 -10 107 -14 28 -38 83 -53 121 -29 71 -58 102 -82 87z"/>
<path d="M5684 9641 c-96 -42 -137 -55 -252 -77 -13 -3 -29 -19 -40 -41 -9
-21 -32 -47 -51 -58 -44 -25 -136 -113 -128 -121 34 -34 637 286 637 338 0 20
-63 4 -166 -41z"/>
<path d="M2965 9320 c-128 -64 -443 -352 -561 -513 -25 -33 -66 -101 -91 -150
-56 -108 -127 -205 -265 -364 -188 -215 -194 -223 -476 -636 -113 -164 -177
-319 -227 -545 -27 -122 -64 -207 -143 -325 -27 -39 -67 -110 -90 -157 -53
-111 -215 -355 -332 -500 -103 -128 -293 -408 -336 -497 -48 -97 -43 -237 16
-473 16 -63 45 -216 65 -340 106 -661 109 -677 182 -860 57 -145 163 -367 191
-400 11 -14 24 -22 28 -18 12 13 -15 87 -65 183 -135 256 -212 595 -237 1043
l-7 123 138 -83 c192 -116 227 -149 260 -246 42 -126 75 -147 75 -49 0 113
-93 233 -277 358 -63 43 -120 91 -144 121 -55 71 -114 197 -139 298 -22 93
-27 240 -10 302 15 54 90 162 248 359 180 226 234 309 361 556 107 209 150
273 181 273 26 0 31 -11 41 -91 18 -147 32 -116 65 143 13 112 34 241 45 287
56 239 245 591 448 835 96 115 163 205 249 333 34 51 75 107 91 125 15 18 56
83 91 143 84 149 151 236 300 389 140 144 238 227 338 285 85 50 110 75 92 96
-17 21 -57 19 -105 -5z"/>
<path d="M5268 9315 c-70 -15 -88 -29 -88 -66 0 -37 20 -38 120 -3 89 31 115
47 107 69 -8 18 -57 19 -139 0z"/>
<path d="M5105 9051 c-73 -58 -89 -77 -80 -92 5 -7 25 6 57 38 44 42 95 104
86 103 -2 -1 -30 -22 -63 -49z"/>
<path d="M9023 9035 c-27 -17 -43 -34 -47 -53 -14 -64 -76 -469 -76 -494 0
-40 15 -34 46 17 39 67 74 186 80 274 8 102 10 108 33 80 18 -22 19 -22 28 -3
15 28 25 127 18 168 -9 43 -24 45 -82 11z"/>
<path d="M9393 8934 c-8 -22 15 -43 27 -24 5 8 10 21 10 28 0 17 -30 15 -37
-4z"/>
<path d="M8604 8682 c-34 -22 -49 -96 -64 -302 -10 -153 -5 -203 24 -208 28
-6 42 14 105 141 71 144 78 169 56 187 -22 18 -49 -9 -91 -92 -19 -38 -37 -68
-40 -68 -4 0 -4 26 -2 58 3 39 17 85 46 148 23 50 42 96 42 102 0 29 -50 52
-76 34z"/>
<path d="M4672 8408 c-14 -14 -16 -48 -4 -48 12 0 42 34 42 48 0 16 -23 15
-38 0z"/>
<path d="M4528 8147 c-43 -68 -98 -189 -98 -216 0 -24 0 -24 21 -5 31 28 119
215 119 254 0 21 -16 8 -42 -33z"/>
<path d="M4382 7768 c-14 -14 -16 -88 -2 -88 14 0 35 79 24 90 -7 7 -14 6 -22
-2z"/>
<path d="M5670 7710 c-25 -16 23 -153 69 -194 12 -11 24 -16 28 -12 11 10 -16
127 -39 168 -23 41 -38 50 -58 38z"/>
<path d="M4281 7445 c-26 -82 -46 -234 -34 -246 6 -6 18 27 32 87 23 101 38
224 28 224 -3 0 -15 -29 -26 -65z"/>
<path d="M4253 6900 c0 -36 2 -50 4 -32 2 17 2 47 0 65 -2 17 -4 3 -4 -33z"/>
<path d="M6444 6949 c-13 -21 3 -26 216 -68 52 -10 148 -39 212 -65 111 -43
157 -54 171 -40 35 35 -167 121 -397 168 -88 19 -192 21 -202 5z"/>
<path d="M6163 6853 c-24 -9 -13 -34 21 -48 18 -8 68 -18 110 -24 161 -20 184
35 28 68 -54 11 -137 14 -159 4z"/>
<path d="M3999 6778 c-24 -29 -78 -90 -121 -134 -75 -78 -95 -114 -63 -114 37
0 220 204 239 267 13 41 -13 33 -55 -19z"/>
<path d="M4140 6533 c0 -79 51 -283 70 -283 6 0 10 15 9 33 -1 55 -53 270 -66
275 -9 2 -13 -6 -13 -25z"/>
<path d="M4511 6329 c-103 -20 -72 -52 45 -46 82 3 142 26 129 47 -7 12 -113
11 -174 -1z"/>
<path d="M4270 6137 c0 -60 15 -76 85 -87 133 -22 301 -7 393 35 105 48 55 55
-168 25 -126 -17 -198 -3 -269 51 -35 28 -41 24 -41 -24z"/>
<path d="M11082 6103 c-46 -30 -55 -49 -19 -37 33 10 78 44 72 55 -8 12 -5 13
-53 -18z"/>
<path d="M3793 6070 c-69 -42 -141 -136 -120 -157 24 -24 207 127 194 160 -8
22 -35 21 -74 -3z"/>
<path d="M11280 6060 c-6 -11 -10 -48 -8 -83 l3 -62 18 39 c18 41 23 126 7
126 -5 0 -14 -9 -20 -20z"/>
<path d="M9141 5961 c-11 -19 -2 -91 39 -321 11 -63 25 -166 29 -228 8 -104
20 -146 37 -129 9 9 6 126 -6 221 -5 45 -14 162 -20 262 -5 99 -12 188 -16
197 -8 23 -51 21 -63 -2z"/>
<path d="M10920 5915 c-14 -17 -5 -35 19 -35 22 0 45 25 36 40 -9 15 -41 12
-55 -5z"/>
<path d="M8944 5690 c15 -357 18 -812 7 -950 -23 -283 -24 -327 -12 -334 18
-11 39 52 51 151 27 234 -4 1194 -40 1251 -8 12 -9 -22 -6 -118z"/>
<path d="M1410 5743 c0 -5 9 -19 20 -33 28 -36 25 -40 -25 -33 -59 8 -60 -11
-5 -61 57 -52 124 -83 143 -67 8 6 13 21 10 31 -7 26 -2 25 55 -5 44 -24 122
-34 122 -17 0 4 -25 20 -56 35 -31 15 -99 57 -151 92 -90 62 -113 74 -113 58z"/>
<path d="M10932 5604 c-33 -23 -27 -37 8 -19 17 9 28 20 25 25 -8 13 -7 13
-33 -6z"/>
<path d="M10684 5559 c-47 -11 -84 -43 -67 -60 7 -7 33 -1 87 21 101 42 90 63
-20 39z"/>
<path d="M10742 5175 c-61 -15 -106 -41 -96 -57 10 -16 161 -3 212 17 29 12
42 23 42 36 0 16 -7 19 -52 18 -29 -1 -77 -7 -106 -14z"/>
<path d="M11686 5074 c-128 -17 -156 -23 -156 -36 0 -12 566 -6 593 6 87 41
-209 61 -437 30z"/>
<path d="M9247 5046 c-14 -35 -21 -163 -8 -170 6 -4 14 -1 17 7 8 22 0 185 -9
163z"/>
<path d="M12170 4910 c-25 -4 -43 -8 -40 -9 29 -8 184 -31 216 -31 44 0 104
17 104 30 0 4 -7 11 -16 14 -20 8 -206 5 -264 -4z"/>
<path d="M1346 4852 c-11 -18 85 -44 186 -49 143 -8 211 11 141 38 -39 15
-318 25 -327 11z"/>
<path d="M11225 4834 c-43 -11 -74 -27 -69 -35 7 -12 231 -11 239 0 3 6 -3 15
-14 21 -23 12 -126 21 -156 14z"/>
<path d="M11667 4833 c-15 -14 -7 -43 12 -43 26 0 36 17 21 35 -14 16 -23 19
-33 8z"/>
<path d="M12350 4770 c0 -5 9 -10 19 -10 11 0 23 5 26 10 4 6 -5 10 -19 10
-14 0 -26 -4 -26 -10z"/>
<path d="M12510 4750 c-11 -7 -3 -10 30 -10 33 0 41 3 30 10 -8 5 -22 10 -30
10 -8 0 -22 -5 -30 -10z"/>
<path d="M11113 4673 c-13 -2 -23 -9 -23 -15 0 -14 309 -3 324 12 10 10 -250
13 -301 3z"/>
<path d="M12490 4653 c-43 -5 -90 -22 -90 -34 0 -15 184 -11 205 5 18 13 18
14 -1 19 -35 10 -79 14 -114 10z"/>
<path d="M890 4561 c0 -51 5 -101 10 -112 13 -23 46 -25 54 -3 19 50 -8 160
-47 193 -16 12 -17 6 -17 -78z"/>
<path d="M11664 4560 c-41 -16 -39 -32 2 -28 26 2 39 8 39 17 0 18 -14 22 -41
11z"/>
<path d="M11180 4539 c-36 -6 -69 -14 -73 -18 -14 -14 162 -22 241 -12 75 10
91 15 78 29 -12 11 -173 12 -246 1z"/>
<path d="M11305 4403 c-137 -11 -233 -26 -252 -39 -47 -30 -21 -46 53 -33 27
5 140 18 251 29 205 20 233 25 233 41 0 8 -193 10 -285 2z"/>
<path d="M12574 4328 c-18 -29 105 -59 159 -39 33 13 35 36 5 45 -40 10 -156
7 -164 -6z"/>
<path d="M11627 4259 c-42 -7 -52 -13 -42 -28 12 -20 135 -5 150 18 7 12 -61
18 -108 10z"/>
<path d="M11098 4233 c-54 -14 34 -43 129 -43 58 0 129 13 141 25 16 16 -33
25 -138 24 -63 -1 -123 -3 -132 -6z"/>
<path d="M12484 4151 c8 -12 190 -34 256 -29 60 3 73 19 25 29 -47 10 -287 10
-281 0z"/>
<path d="M10911 4101 c-31 -8 -50 -25 -51 -43 0 -17 61 -21 168 -11 116 11
147 22 124 45 -15 15 -191 21 -241 9z"/>
<path d="M11418 4103 c-22 -6 -23 -29 -2 -37 41 -16 144 8 144 33 0 11 -106
14 -142 4z"/>
<path d="M11790 4100 c-11 -7 -2 -10 33 -10 30 0 46 4 42 10 -8 13 -55 13 -75
0z"/>
<path d="M12253 3983 c-18 -7 -16 -30 3 -37 9 -3 88 -6 177 -5 229 1 273 18
107 38 -86 11 -265 14 -287 4z"/>
<path d="M10880 3961 c-118 -6 -155 -16 -129 -32 16 -10 437 -10 579 0 l95 6
-50 12 c-63 15 -342 23 -495 14z"/>
<path d="M11665 3940 c8 -13 65 -13 85 0 11 7 0 10 -38 10 -33 0 -51 -4 -47
-10z"/>
<path d="M11383 3840 c-27 -11 -30 -25 -7 -34 26 -10 120 -7 151 5 27 10 27
11 9 25 -22 16 -118 18 -153 4z"/>
<path d="M12325 3760 c-4 -6 8 -10 29 -10 20 0 36 5 36 10 0 6 -13 10 -29 10
-17 0 -33 -4 -36 -10z"/>
<path d="M11700 3730 c0 -5 11 -10 25 -10 14 0 25 5 25 10 0 6 -11 10 -25 10
-14 0 -25 -4 -25 -10z"/>
<path d="M12113 3598 c-41 -20 -24 -28 55 -28 90 0 122 7 122 26 0 17 -143 19
-177 2z"/>
<path d="M11480 3579 c-67 -10 -131 -31 -133 -44 -3 -17 123 -17 207 0 85 17
116 30 116 45 0 12 -111 11 -190 -1z"/>
<path d="M11843 3479 c-68 -20 -23 -44 85 -43 68 0 97 15 65 32 -30 16 -114
22 -150 11z"/>
<path d="M12088 3478 c-36 -13 -36 -35 0 -43 57 -12 114 34 60 49 -27 7 -26 7
-60 -6z"/>
<path d="M11282 3410 c-45 -11 -49 -18 -17 -26 32 -8 97 6 96 21 -1 13 -37 15
-79 5z"/>
<path d="M10991 3401 c-19 -12 69 -24 124 -15 25 3 42 10 39 15 -7 11 -145 11
-163 0z"/>
<path d="M11621 3320 c-51 -6 -90 -15 -99 -24 -14 -13 -1 -14 109 -9 79 3 186
-1 297 -11 219 -20 242 -20 242 0 0 8 -17 22 -37 31 -45 19 -372 27 -512 13z"/>
<path d="M11655 2996 c-30 -22 -6 -27 106 -24 l94 3 -52 12 c-98 24 -127 25
-148 9z"/>
<path d="M11447 2713 c-4 -6 4 -14 18 -17 52 -13 232 -27 265 -20 l35 7 -45
14 c-59 18 -265 30 -273 16z"/>
<path d="M11133 2421 c-172 -17 -17 -53 282 -67 124 -5 156 -4 188 9 40 17 47
32 19 41 -17 6 -383 27 -412 24 -8 0 -43 -4 -77 -7z"/>
<path d="M11095 2181 c-70 -15 -7 -57 67 -45 39 6 56 20 42 34 -14 12 -75 18
-109 11z"/>
<path d="M897 1558 c-29 -29 -35 -48 -14 -48 21 0 49 36 45 57 -3 16 -7 15
-31 -9z"/>
<path d="M10990 1335 c0 -22 38 -39 56 -24 11 9 12 15 3 25 -15 19 -59 18 -59
-1z"/>
<path d="M945 1316 c-55 -26 -124 -80 -114 -90 15 -16 179 75 179 100 0 19 -7
18 -65 -10z"/>
<path d="M9732 1299 c-133 -26 -60 -41 247 -50 290 -8 341 -14 457 -54 87 -30
117 -32 112 -8 -8 43 -156 96 -310 113 -114 12 -444 12 -506 -1z"/>
<path d="M9100 1030 c-35 -22 169 -72 348 -86 93 -7 106 -3 75 23 -40 32 -92
44 -241 58 -186 17 -164 17 -182 5z"/>
<path d="M8790 933 c-39 -7 -46 -21 -16 -33 34 -12 186 -13 186 -1 0 19 -119
42 -170 34z"/>
</g>
</svg>
